<svg width="32" height="32" viewBox="0 0 32 32" fill="none" xmlns="http://www.w3.org/2000/svg">
<g clip-path="url(#clip0_18_416)">
<path d="M25.0752 4.20752C25.5598 4.54596 25.9518 4.98996 26.125 5.5625C26.125 5.645 26.125 5.7275 26.125 5.8125C26.1707 5.81195 26.2163 5.81139 26.2633 5.81082C26.6937 5.80581 27.1241 5.80201 27.5544 5.79955C27.7757 5.79825 27.9969 5.79648 28.2182 5.79364C28.4726 5.79041 28.727 5.78919 28.9815 5.78809C29.1005 5.78615 29.1005 5.78615 29.222 5.78418C29.3327 5.78415 29.3327 5.78415 29.4456 5.78412C29.5106 5.78357 29.5756 5.78301 29.6425 5.78244C29.8125 5.8125 29.8125 5.8125 29.9585 5.91301C30.0971 6.11223 30.0939 6.24096 30.0939 6.48279C30.0944 6.54534 30.0944 6.54534 30.0949 6.60915C30.0957 6.74662 30.0947 6.88402 30.0935 7.02149C30.0935 7.11722 30.0936 7.21295 30.0938 7.30868C30.0939 7.50918 30.0931 7.70964 30.0917 7.91013C30.0899 8.16696 30.0901 8.42375 30.0909 8.68058C30.0913 8.87822 30.0908 9.07585 30.09 9.27348C30.0898 9.36817 30.0897 9.46287 30.09 9.55756C30.0902 9.68997 30.0891 9.82231 30.0878 9.95472C30.0874 10.03 30.0871 10.1053 30.0868 10.1829C30.0604 10.3916 30.0234 10.4783 29.875 10.625C29.6966 10.6794 29.6966 10.6794 29.4883 10.7148C28.8175 10.8556 28.5173 11.1372 28.125 11.6875C28.0625 11.75 28.0625 11.75 27.8555 11.7656C27.625 11.75 27.625 11.75 27.4766 11.6836C27.3151 11.4911 27.3045 11.3769 27.3125 11.125C27.5441 10.5516 27.9949 10.1053 28.5508 9.84375C28.7471 9.7608 28.8389 9.75 29.0625 9.75C29.0625 8.78063 29.0625 7.81125 29.0625 6.8125C28.8135 6.8154 28.5645 6.8183 28.3079 6.82129C28.0667 6.82324 27.8255 6.82476 27.5843 6.82624C27.4167 6.82735 27.2491 6.82909 27.0815 6.83136C26.8405 6.8344 26.5996 6.83581 26.3587 6.83692C26.2837 6.83821 26.2088 6.8395 26.1316 6.84083C25.6127 6.84097 25.6127 6.84097 25.3604 6.69779C25.2179 6.52318 25.1893 6.38549 25.1524 6.16407C25.0488 5.6495 24.8544 5.36877 24.4375 5.0625C24.0599 4.8813 23.6285 4.86437 23.2261 4.98047C22.8567 5.14902 22.6435 5.40652 22.4571 5.76563C22.3727 6.00666 22.3319 6.23266 22.3013 6.48536C22.2282 6.6844 22.1251 6.72012 21.9375 6.8125C21.7671 6.83505 21.7671 6.83505 21.5808 6.83379C21.5107 6.83378 21.4407 6.83376 21.3685 6.83375C21.2935 6.83278 21.2186 6.83181 21.1414 6.83081C21.0641 6.83055 20.9869 6.83028 20.9073 6.83001C20.7027 6.82914 20.4982 6.82746 20.2936 6.82538C20.0845 6.82345 19.8755 6.82262 19.6664 6.82166C19.2568 6.81959 18.8471 6.81646 18.4375 6.8125C18.4381 6.85658 18.4386 6.90066 18.4392 6.94607C18.4442 7.36172 18.448 7.77736 18.4505 8.19303C18.4518 8.40672 18.4536 8.6204 18.4564 8.83408C18.4596 9.07981 18.4608 9.32554 18.4619 9.57129C18.4632 9.64793 18.4645 9.72456 18.4658 9.80352C18.4659 9.87483 18.4659 9.94613 18.4659 10.0196C18.4665 10.0823 18.467 10.1451 18.4676 10.2097C18.4291 10.4213 18.3545 10.4936 18.1875 10.625C18.003 10.6772 18.003 10.6772 17.7969 10.7109C17.3248 10.809 17.0016 10.9891 16.7227 11.3867C16.5128 11.7645 16.4935 12.1803 16.6053 12.5967C16.773 13.0116 16.9926 13.2113 17.3907 13.418C17.6312 13.5021 17.8586 13.5458 18.1104 13.5798C18.2951 13.6396 18.3385 13.7094 18.4375 13.875C18.4601 14.0403 18.4601 14.0403 18.4588 14.2304C18.4588 14.3017 18.4588 14.373 18.4588 14.4465C18.4578 14.5231 18.4568 14.5998 18.4558 14.6787C18.4556 14.7574 18.4553 14.8362 18.455 14.9173C18.4542 15.1261 18.4525 15.3348 18.4504 15.5436C18.4485 15.7569 18.4476 15.9701 18.4467 16.1834C18.4448 16.6014 18.4411 17.0194 18.4375 17.4375C19.4069 17.4375 20.3763 17.4375 21.375 17.4375C21.3957 17.3138 21.4163 17.19 21.4375 17.0625C21.7376 16.3559 22.2039 15.9512 22.8845 15.6226C23.4917 15.3806 24.1696 15.4434 24.7698 15.6714C25.3774 15.9562 25.8224 16.4451 26.0857 17.0576C26.125 17.1875 26.125 17.1875 26.125 17.4375C27.0944 17.4375 28.0638 17.4375 29.0625 17.4375C29.0625 16.4681 29.0625 15.4988 29.0625 14.5C28.9388 14.4794 28.815 14.4588 28.6875 14.4375C28.251 14.2521 27.7818 13.9653 27.5547 13.5352C27.4814 13.2365 27.5355 13.1371 27.6875 12.875C27.8837 12.7769 28.0337 12.7905 28.25 12.8125C28.4024 12.9492 28.4024 12.9492 28.5625 13.125C28.9075 13.4088 29.2616 13.4981 29.6966 13.5767C29.888 13.6285 29.9446 13.658 30.0625 13.8125C30.0856 13.9537 30.0856 13.9537 30.0851 14.1222C30.0855 14.218 30.0855 14.218 30.0859 14.3158C30.0852 14.3858 30.0845 14.4558 30.0838 14.528C30.0838 14.6018 30.0839 14.6756 30.0839 14.7516C30.0838 14.9539 30.0828 15.1563 30.0815 15.3586C30.0804 15.5701 30.0803 15.7815 30.08 15.993C30.0794 16.3934 30.0779 16.7938 30.076 17.1942C30.0739 17.6501 30.0729 18.1059 30.072 18.5618C30.07 19.4995 30.0667 20.4373 30.0625 21.375C30.1204 21.387 30.1204 21.387 30.1794 21.3992C30.23 21.41 30.2806 21.4207 30.3328 21.4319C30.3829 21.4424 30.4331 21.453 30.4848 21.4638C31.0395 21.6069 31.4975 22.1235 31.7837 22.5964C32.0969 23.2307 32.1192 24.0142 31.9063 24.6875C31.6584 25.2536 31.2457 25.7273 30.6875 26C30.5908 26.0339 30.4937 26.0667 30.3963 26.0987C30.3455 26.1153 30.2947 26.132 30.2424 26.1492C30.1843 26.1682 30.1843 26.1682 30.125 26.1875C30.1248 26.2324 30.1246 26.2772 30.1243 26.3234C30.122 26.7465 30.1184 27.1695 30.1135 27.5925C30.1111 27.8099 30.1091 28.0274 30.1081 28.2449C30.107 28.495 30.1038 28.745 30.1006 28.9951C30.1005 29.0731 30.1005 29.1511 30.1004 29.2315C30.0991 29.304 30.0979 29.3766 30.0966 29.4514C30.0961 29.5152 30.0955 29.579 30.095 29.6448C30.0527 29.8635 29.9948 29.9353 29.8125 30.0625C29.6176 30.0938 29.6176 30.0938 29.3855 30.0939C29.3431 30.0942 29.3007 30.0945 29.257 30.0949C29.1172 30.0957 28.9775 30.0946 28.8377 30.0935C28.7404 30.0935 28.6431 30.0936 28.5458 30.0938C28.3421 30.0939 28.1385 30.0931 27.9348 30.0917C27.6736 30.0899 27.4124 30.0901 27.1513 30.0909C26.9505 30.0913 26.7497 30.0908 26.5489 30.09C26.4526 30.0897 26.3563 30.0897 26.2599 30.09C26.1254 30.0902 25.991 30.0891 25.8565 30.0878C25.7799 30.0874 25.7034 30.0871 25.6245 30.0867C25.4375 30.0625 25.4375 30.0625 25.3208 29.9785C25.2147 29.8233 25.1946 29.6681 25.1602 29.4844C25.0555 29.0027 24.9417 28.7214 24.5469 28.4102C24.3247 28.2261 24.3247 28.2261 24.2715 28.0576C24.2622 27.849 24.3002 27.7073 24.4102 27.5313C24.6296 27.3962 24.7454 27.3951 25 27.4375C25.5328 27.7154 25.9373 28.2492 26.125 28.8125C26.125 28.895 26.125 28.9775 26.125 29.0625C27.0944 29.0625 28.0638 29.0625 29.0625 29.0625C29.0596 28.8135 29.0567 28.5644 29.0537 28.3079C29.0518 28.0667 29.0503 27.8255 29.0488 27.5843C29.0477 27.4167 29.0459 27.2491 29.0437 27.0814C29.0406 26.8405 29.0392 26.5996 29.0381 26.3586C29.0362 26.2462 29.0362 26.2462 29.0342 26.1315C29.0341 25.6126 29.0341 25.6126 29.1775 25.3603C29.3505 25.219 29.4835 25.1916 29.7032 25.1563C30.1281 25.0695 30.4383 24.9688 30.7246 24.6333C30.9844 24.2394 30.9996 23.8342 30.9375 23.375C30.8311 23.0047 30.6307 22.7809 30.3125 22.5625C30.0082 22.4045 29.7263 22.342 29.3897 22.3013C29.1906 22.2282 29.1549 22.1251 29.0625 21.9375C29.04 21.7671 29.04 21.7671 29.0412 21.5807C29.0413 21.5107 29.0413 21.4406 29.0413 21.3685C29.0422 21.2935 29.0432 21.2186 29.0442 21.1414C29.0445 21.0641 29.0447 20.9869 29.045 20.9073C29.0459 20.7027 29.0476 20.4982 29.0497 20.2936C29.0516 20.0845 29.0524 19.8755 29.0534 19.6664C29.0554 19.2567 29.0586 18.8471 29.0625 18.4375C29.0184 18.4379 28.9744 18.4383 28.929 18.4388C28.5133 18.4425 28.0977 18.4454 27.682 18.4472C27.4683 18.4482 27.2546 18.4495 27.041 18.4516C26.7952 18.4541 26.5495 18.455 26.3037 18.4558C26.1888 18.4573 26.1888 18.4573 26.0715 18.4587C26.0002 18.4588 25.9289 18.4588 25.8554 18.4588C25.7927 18.4592 25.73 18.4596 25.6653 18.4601C25.4723 18.4337 25.388 18.3859 25.25 18.25C25.1978 18.0579 25.1978 18.0579 25.1641 17.832C25.0713 17.356 24.9476 17.0578 24.5462 16.7756C24.1832 16.5699 23.8507 16.4849 23.4375 16.5625C23.0185 16.6921 22.7369 16.8934 22.5105 17.27C22.3975 17.5293 22.3477 17.7955 22.3023 18.0737C22.2392 18.2866 22.189 18.3271 22 18.4375C21.8347 18.4601 21.8347 18.4601 21.6446 18.4588C21.5377 18.4588 21.5377 18.4588 21.4285 18.4587C21.3519 18.4578 21.2753 18.4568 21.1963 18.4558C21.1176 18.4555 21.0389 18.4553 20.9578 18.455C20.749 18.4541 20.5402 18.4525 20.3314 18.4504C20.1182 18.4485 19.9049 18.4476 19.6917 18.4467C19.2736 18.4448 18.8556 18.4411 18.4375 18.4375C18.4375 19.4069 18.4375 20.3763 18.4375 21.375C18.5613 21.3956 18.685 21.4163 18.8125 21.4375C19.4701 21.7168 19.9557 22.1802 20.2525 22.8296C20.4757 23.4576 20.4633 24.1731 20.2036 24.7859C19.8132 25.5389 19.2891 25.8587 18.5 26.1875C18.4794 27.1363 18.4588 28.085 18.4375 29.0625C19.4069 29.0625 20.3763 29.0625 21.375 29.0625C21.3957 28.9388 21.4163 28.815 21.4375 28.6875C21.6515 28.1837 22.003 27.686 22.5 27.4375C22.6896 27.3986 22.8011 27.4086 23 27.4375C23.1602 27.5664 23.1602 27.5664 23.25 27.75C23.25 27.9932 23.2342 28.1308 23.0782 28.3203C23.0317 28.359 22.9853 28.3977 22.9375 28.4375C22.5219 28.8115 22.3633 29.191 22.2869 29.7376C22.2424 29.9035 22.1973 29.9572 22.0625 30.0625C21.9213 30.0856 21.9213 30.0856 21.7529 30.0851C21.689 30.0853 21.6251 30.0856 21.5593 30.0858C21.4892 30.0852 21.4192 30.0845 21.347 30.0838C21.2363 30.0838 21.2363 30.0838 21.1234 30.0839C20.9211 30.0838 20.7188 30.0828 20.5164 30.0815C20.305 30.0803 20.0935 30.0802 19.8821 30.08C19.4816 30.0794 19.0812 30.0779 18.6808 30.076C18.225 30.0739 17.7691 30.0729 17.3132 30.0719C16.3755 30.07 15.4378 30.0667 14.5 30.0625C14.4912 30.1313 14.4824 30.2001 14.4733 30.271C14.3939 30.7793 14.0332 31.256 13.625 31.5625C12.9082 31.974 12.1811 32.1458 11.3626 31.9529C11.213 31.8945 11.0767 31.8298 10.9375 31.75C10.8731 31.7139 10.8086 31.6778 10.7422 31.6406C10.2657 31.2677 9.93928 30.8985 9.75003 30.3125C9.75003 30.23 9.75003 30.1475 9.75003 30.0625C9.70438 30.0631 9.65874 30.0636 9.61172 30.0642C9.18135 30.0692 8.75099 30.073 8.32061 30.0755C8.09934 30.0768 7.87811 30.0785 7.65686 30.0814C7.40243 30.0846 7.14803 30.0858 6.89358 30.0869C6.81421 30.0882 6.73484 30.0895 6.65307 30.0908C6.54236 30.0909 6.54236 30.0909 6.42941 30.0909C6.36446 30.0914 6.2995 30.092 6.23258 30.0926C6.06253 30.0625 6.06253 30.0625 5.91656 29.962C5.77793 29.7628 5.7812 29.6341 5.78117 29.3922C5.78066 29.3297 5.78066 29.3297 5.78014 29.2659C5.77936 29.1284 5.7804 28.991 5.78152 28.8535C5.78151 28.7578 5.78142 28.6621 5.78125 28.5663C5.78116 28.3658 5.78194 28.1654 5.78337 27.9649C5.78514 27.708 5.78497 27.4513 5.78417 27.1944C5.78374 26.9968 5.78422 26.7992 5.785 26.6015C5.78528 26.5068 5.78531 26.4121 5.78506 26.3175C5.78488 26.185 5.78591 26.0527 5.78727 25.9203C5.78761 25.845 5.78795 25.7697 5.7883 25.6921C5.81464 25.4832 5.85072 25.3962 6.00003 25.25C6.19216 25.1978 6.19216 25.1978 6.41799 25.1641C6.86967 25.0774 7.18106 24.9503 7.45828 24.5747C7.66447 24.2352 7.71929 23.9564 7.68753 23.5625C7.56658 23.0833 7.34898 22.7738 6.93753 22.5C6.72292 22.4016 6.53641 22.3721 6.30471 22.3516C6.03321 22.3078 5.97382 22.2775 5.81253 22.0625C5.78036 21.868 5.78036 21.868 5.77919 21.6365C5.77865 21.5942 5.77811 21.5519 5.77755 21.5083C5.77614 21.3688 5.77656 21.2294 5.77713 21.0898C5.7768 20.9927 5.77641 20.8956 5.77595 20.7985C5.7753 20.595 5.77559 20.3916 5.7765 20.1882C5.77757 19.9275 5.7761 19.667 5.77391 19.4064C5.77253 19.2058 5.77262 19.0053 5.77314 18.8048C5.77319 18.7087 5.77276 18.6126 5.77184 18.5165C5.77075 18.3821 5.77166 18.2479 5.77308 18.1135C5.77314 18.0371 5.7732 17.9607 5.77326 17.882C5.81253 17.6875 5.81253 17.6875 5.94531 17.5379C6.16031 17.4178 6.29439 17.4058 6.53994 17.4052C6.58033 17.4047 6.62072 17.4043 6.66233 17.4038C6.7951 17.4027 6.9278 17.4035 7.06057 17.4043C7.15326 17.4041 7.24595 17.4039 7.33864 17.4036C7.53261 17.4032 7.72656 17.4037 7.92053 17.4049C8.16874 17.4063 8.41689 17.4055 8.66511 17.404C8.85642 17.4031 9.04772 17.4034 9.23903 17.404C9.33053 17.4042 9.42203 17.404 9.51353 17.4034C9.64159 17.4028 9.76955 17.4038 9.89761 17.4052C9.97036 17.4054 10.0431 17.4056 10.1181 17.4058C10.354 17.4443 10.4577 17.5195 10.625 17.6875C10.6878 17.8765 10.6878 17.8765 10.7227 18.0859C10.8263 18.6005 11.0207 18.8812 11.4375 19.1875C11.8186 19.3667 12.2041 19.3814 12.6079 19.2622C13.0137 19.0844 13.2603 18.8442 13.4375 18.4375C13.4932 18.226 13.5376 18.0171 13.5728 17.8013C13.6359 17.5884 13.6861 17.5479 13.875 17.4375C14.0403 17.415 14.0403 17.415 14.2304 17.4162C14.3374 17.4162 14.3374 17.4162 14.4465 17.4163C14.5231 17.4172 14.5998 17.4182 14.6787 17.4192C14.7968 17.4196 14.7968 17.4196 14.9173 17.42C15.1261 17.4209 15.3348 17.4226 15.5436 17.4246C15.7569 17.4266 15.9701 17.4274 16.1834 17.4283C16.6014 17.4303 17.0195 17.4339 17.4375 17.4375C17.4375 16.4681 17.4375 15.4988 17.4375 14.5C17.3138 14.4794 17.19 14.4588 17.0625 14.4375C16.3469 14.1762 15.9542 13.7213 15.6331 13.0459C15.4096 12.5046 15.4144 11.8038 15.6016 11.25C15.8887 10.5795 16.3887 10.0769 17.0576 9.78931C17.1875 9.75 17.1875 9.75 17.4375 9.75C17.437 9.70528 17.4364 9.66056 17.4358 9.61449C17.4308 9.19242 17.427 8.77036 17.4246 8.34827C17.4233 8.13128 17.4215 7.91432 17.4187 7.69735C17.4154 7.44773 17.4142 7.19813 17.4131 6.94849C17.4118 6.87081 17.4105 6.79313 17.4092 6.7131C17.4092 6.64055 17.4092 6.56799 17.4091 6.49324C17.4086 6.42954 17.408 6.36584 17.4075 6.3002C17.4467 6.07134 17.5178 5.96983 17.6875 5.8125C17.8576 5.77492 17.8576 5.77492 18.0544 5.77703C18.1282 5.77705 18.202 5.77707 18.2781 5.7771C18.3971 5.77952 18.3971 5.77952 18.5186 5.78199C18.6001 5.78243 18.6816 5.78287 18.7655 5.78333C18.9817 5.78452 19.1979 5.78758 19.4141 5.79105C19.6349 5.79425 19.8556 5.79567 20.0764 5.79725C20.5093 5.80059 20.9422 5.80592 21.375 5.8125C21.3832 5.77376 21.3913 5.73501 21.3998 5.6951C21.4161 5.61896 21.4161 5.61896 21.4329 5.54128C21.4436 5.49093 21.4543 5.44059 21.4654 5.38872C21.5915 4.88351 22.0304 4.48347 22.4375 4.1875C23.2593 3.73185 24.2647 3.72179 25.0752 4.20752ZM6.81253 18.4375C6.81253 19.4069 6.81253 20.3763 6.81253 21.375C7.06003 21.4781 7.30753 21.5813 7.56253 21.6875C8.1445 22.0852 8.4911 22.5832 8.65628 23.2627C8.79044 24.0132 8.61863 24.688 8.18753 25.3125C7.80186 25.746 7.37059 25.9855 6.81253 26.125C6.81253 27.0944 6.81253 28.0638 6.81253 29.0625C7.05253 29.0656 7.29254 29.0686 7.53982 29.0718C7.77232 29.0752 8.00482 29.0787 8.23732 29.0823C8.39887 29.0847 8.56043 29.0869 8.722 29.0889C8.95425 29.0917 9.18648 29.0954 9.41873 29.0991C9.49094 29.0998 9.56315 29.1006 9.63755 29.1013C9.73887 29.1032 9.73887 29.1032 9.84224 29.1051C9.93113 29.1063 9.93113 29.1063 10.0218 29.1076C10.2041 29.1267 10.337 29.1665 10.5 29.25C10.6305 29.4457 10.6489 29.5419 10.6797 29.7695C10.7676 30.2797 11.0278 30.5767 11.4375 30.875C11.7594 31.0772 12.1344 31.0342 12.5 31C12.9189 30.8915 13.195 30.5965 13.4375 30.25C13.5154 30.0757 13.5549 29.9209 13.586 29.7334C13.595 29.6835 13.604 29.6335 13.6133 29.582C13.6202 29.5354 13.627 29.4887 13.6341 29.4407C13.7119 29.2542 13.8216 29.2142 14 29.125C14.1681 29.1001 14.1681 29.1001 14.3511 29.098C14.4199 29.0967 14.4886 29.0955 14.5595 29.0942C14.6699 29.0936 14.6699 29.0936 14.7825 29.093C14.8584 29.0919 14.9342 29.0908 15.0124 29.0896C15.2543 29.0862 15.4963 29.0841 15.7383 29.082C15.9025 29.08 16.0667 29.0778 16.2309 29.0756C16.6331 29.0703 17.0353 29.066 17.4375 29.0625C17.4382 29.0183 17.4388 28.9741 17.4395 28.9285C17.4456 28.5119 17.452 28.0953 17.4587 27.6787C17.4622 27.4646 17.4655 27.2504 17.4686 27.0362C17.4722 26.79 17.4762 26.5438 17.4803 26.2976C17.4813 26.2207 17.4823 26.1437 17.4834 26.0644C17.4847 25.9931 17.4859 25.9218 17.4872 25.8483C17.4882 25.7854 17.4891 25.7226 17.4901 25.6578C17.5 25.5 17.5 25.5 17.5625 25.3125C17.6259 25.3019 17.6892 25.2912 17.7544 25.2803C17.8389 25.265 17.9234 25.2497 18.0078 25.2344C18.0702 25.2241 18.0702 25.2241 18.1338 25.2136C18.6317 25.1209 18.9621 24.8444 19.25 24.4375C19.4287 24.072 19.4447 23.6577 19.3225 23.2715C19.1195 22.8176 18.8342 22.5531 18.3789 22.3594C18.2677 22.3321 18.1561 22.3064 18.0437 22.2844C17.9932 22.2744 17.9427 22.2643 17.8907 22.2539C17.8433 22.2456 17.7959 22.2373 17.7471 22.2288C17.625 22.1875 17.625 22.1875 17.5 22C17.4826 21.8422 17.4826 21.8422 17.4801 21.6517C17.4782 21.5447 17.4782 21.5447 17.4763 21.4356C17.4753 21.3202 17.4753 21.3202 17.4741 21.2024C17.4723 21.0842 17.4723 21.0842 17.4705 20.9636C17.4674 20.7543 17.4648 20.545 17.4625 20.3357C17.46 20.122 17.4568 19.9084 17.4536 19.6947C17.4475 19.2756 17.4426 18.8566 17.4375 18.4375C16.4682 18.4375 15.4988 18.4375 14.5 18.4375C14.3969 18.685 14.2938 18.9325 14.1875 19.1875C13.8645 19.7058 13.3902 20.1155 12.792 20.2852C12.0303 20.4099 11.3112 20.3385 10.668 19.8867C10.2939 19.5807 10.048 19.2685 9.86624 18.8196C9.81327 18.6893 9.75041 18.5633 9.68753 18.4375C8.73878 18.4375 7.79003 18.4375 6.81253 18.4375Z" fill="white"/>
<path d="M2.61351 -0.0333143C2.65582 -0.0338528 2.69813 -0.0343913 2.74172 -0.034946C2.88122 -0.0363621 3.02064 -0.0359412 3.16015 -0.0353742C3.25728 -0.0357015 3.35441 -0.0360937 3.45154 -0.0365482C3.65498 -0.0371984 3.85838 -0.0369134 4.06182 -0.0359999C4.32245 -0.0349252 4.583 -0.0363945 4.84362 -0.038593C5.04416 -0.0399658 5.24467 -0.0398764 5.44521 -0.0393576C5.5413 -0.0393064 5.63738 -0.0397358 5.73347 -0.0406558C5.86785 -0.0417454 6.00208 -0.0408383 6.13646 -0.0394178C6.21288 -0.0393577 6.28929 -0.0392976 6.36802 -0.0392357C6.56249 2.61441e-05 6.56249 2.61366e-05 6.71171 0.148671C6.81988 0.324544 6.84752 0.436934 6.86718 0.640651C6.92562 1.01399 7.0509 1.2872 7.31249 1.56253C7.67154 1.80755 8.06453 1.92936 8.49999 1.87503C8.95817 1.73475 9.27794 1.50607 9.51171 1.08206C9.62842 0.836493 9.67566 0.593146 9.71312 0.324977C9.75861 0.15539 9.79607 0.104305 9.93749 2.61441e-05C10.1244 -0.0242039 10.1244 -0.0242039 10.3564 -0.0252272C10.3987 -0.0256561 10.441 -0.0260851 10.4846 -0.026527C10.6244 -0.0276709 10.7642 -0.0274286 10.904 -0.0270735C11.0013 -0.0273585 11.0985 -0.0276901 11.1957 -0.0280662C11.3995 -0.0286249 11.6033 -0.0284725 11.8071 -0.0278517C12.0682 -0.0271337 12.3293 -0.0283963 12.5904 -0.0302215C12.7912 -0.0313685 12.992 -0.031351 13.1928 -0.0309941C13.289 -0.0309846 13.3853 -0.0313631 13.4816 -0.0321374C13.6162 -0.0330679 13.7508 -0.032403 13.8855 -0.0313307C13.9621 -0.0313203 14.0387 -0.0313099 14.1176 -0.0312992C14.3125 2.61441e-05 14.3125 2.61366e-05 14.4622 0.100718C14.5959 0.299763 14.5942 0.431194 14.5948 0.670314C14.5953 0.712011 14.5957 0.753709 14.5962 0.796669C14.5973 0.934143 14.5965 1.07154 14.5957 1.20901C14.5959 1.30474 14.5961 1.40047 14.5964 1.4962C14.5968 1.6967 14.5963 1.89716 14.5951 2.09765C14.5937 2.35449 14.5945 2.61127 14.596 2.86811C14.5969 3.06574 14.5966 3.26337 14.5959 3.46101C14.5958 3.5557 14.596 3.65039 14.5966 3.74508C14.5972 3.8775 14.5962 4.00982 14.5948 4.14224C14.5946 4.21754 14.5944 4.29284 14.5942 4.37043C14.5562 4.60066 14.4963 4.67309 14.3125 4.81253C14.1235 4.86917 14.1235 4.86917 13.9141 4.90628C13.4031 5.01315 13.1203 5.19749 12.8125 5.62503C12.6362 5.99441 12.616 6.40503 12.7422 6.79324C12.9399 7.22971 13.1786 7.45558 13.6172 7.63674C13.7287 7.66575 13.841 7.69277 13.9543 7.71365C14.0042 7.72308 14.0541 7.7325 14.1055 7.74221C14.1754 7.75357 14.1754 7.75357 14.2468 7.76516C14.4219 7.82986 14.4677 7.90209 14.5625 8.06253C14.5871 8.25183 14.5871 8.25183 14.5887 8.47608C14.5893 8.51707 14.5898 8.55806 14.5903 8.60029C14.5918 8.73542 14.5919 8.8705 14.5918 9.00564C14.5922 9.09982 14.5927 9.194 14.5932 9.28818C14.5941 9.48546 14.5942 9.68273 14.5938 9.88002C14.5934 10.1325 14.5953 10.3849 14.5979 10.6374C14.5995 10.8319 14.5997 11.0264 14.5994 11.2208C14.5995 11.3139 14.6001 11.407 14.6013 11.5C14.6026 11.6304 14.602 11.7606 14.6009 11.8909C14.6011 11.9649 14.6012 12.039 14.6013 12.1153C14.5501 12.3757 14.4609 12.4675 14.25 12.625C14.0748 12.6626 14.0748 12.6626 13.8817 12.6605C13.8092 12.6605 13.7366 12.6605 13.6619 12.6604C13.5454 12.658 13.5454 12.658 13.4265 12.6555C13.3465 12.6551 13.2665 12.6547 13.184 12.6542C12.972 12.653 12.7601 12.6499 12.5481 12.6465C12.3315 12.6433 12.1149 12.6419 11.8983 12.6403C11.4738 12.6368 11.0494 12.6316 10.625 12.625C10.6161 12.6837 10.6072 12.7424 10.598 12.8029C10.4948 13.3759 10.046 13.8154 9.62499 14.1875C9.39556 14.3405 9.20407 14.3639 8.93749 14.3125C8.77733 14.1836 8.77733 14.1836 8.68749 14C8.68749 13.759 8.70432 13.62 8.85546 13.4297C8.96368 13.342 9.07491 13.2579 9.18749 13.1758C9.55684 12.8699 9.64914 12.4036 9.70702 11.9478C9.76487 11.7657 9.83719 11.7226 9.99999 11.625C10.1653 11.6025 10.1653 11.6025 10.3554 11.6037C10.4624 11.6038 10.4624 11.6038 10.5715 11.6038C10.6481 11.6048 10.7247 11.6057 10.8037 11.6067C10.9218 11.6071 10.9218 11.6071 11.0422 11.6075C11.251 11.6084 11.4598 11.6101 11.6686 11.6122C11.8818 11.6141 12.0951 11.6149 12.3083 11.6159C12.7264 11.6178 13.1444 11.6214 13.5625 11.625C13.5625 10.6557 13.5625 9.68628 13.5625 8.68753C13.315 8.62565 13.315 8.62565 13.0625 8.56253C12.4002 8.26416 12.0297 7.81354 11.7466 7.15725C11.5223 6.56053 11.5487 5.86115 11.7964 5.27664C12.1105 4.67079 12.6106 4.18737 13.25 3.93753C13.3325 3.9169 13.415 3.89628 13.5 3.87503C13.5309 2.42096 13.5309 2.42096 13.5625 0.937526C12.6137 0.958151 11.665 0.978776 10.6875 1.00003C10.605 1.2269 10.5225 1.45378 10.4375 1.68753C10.0382 2.3553 9.45746 2.70642 8.72655 2.91799C7.94774 3.01071 7.25706 2.85043 6.62499 2.37503C6.25925 2.04992 6.03076 1.6498 5.87499 1.18753C5.87499 1.10503 5.87499 1.02253 5.87499 0.937526C4.90561 0.937526 3.93624 0.937526 2.93749 0.937526C2.94039 1.19107 2.94329 1.44461 2.94628 1.70584C2.94789 1.90841 2.94924 2.11098 2.95043 2.31355C2.95175 2.52718 2.95351 2.74078 2.95635 2.95439C2.95959 3.19966 2.9608 3.44492 2.9619 3.69021C2.96319 3.76652 2.96448 3.84284 2.96581 3.92146C2.96583 3.99276 2.96585 4.06406 2.96587 4.13752C2.96643 4.20012 2.96698 4.26271 2.96755 4.3272C2.92895 4.5491 2.84381 4.65317 2.68749 4.81253C2.50292 4.87307 2.50292 4.87307 2.29686 4.90628C1.87189 4.99299 1.56171 5.09377 1.27538 5.42923C1.01564 5.82317 1.00038 6.22835 1.06249 6.68753C1.16854 7.05662 1.36816 7.28509 1.68749 7.50003C1.98931 7.64679 2.29505 7.71554 2.62621 7.76126C2.80995 7.83736 2.8501 7.94959 2.93749 8.12503C2.96004 8.29548 2.96004 8.29548 2.95878 8.48179C2.95875 8.58687 2.95875 8.58687 2.95873 8.69406C2.95728 8.80648 2.95728 8.80648 2.9558 8.92117C2.95553 8.99841 2.95527 9.07566 2.955 9.15524C2.95413 9.35982 2.95244 9.56438 2.95036 9.76895C2.94844 9.97801 2.9476 10.1871 2.94664 10.3961C2.94458 10.8058 2.94144 11.2154 2.93749 11.625C2.98143 11.6243 3.02536 11.6236 3.07063 11.6229C3.48534 11.6167 3.90003 11.6119 4.31478 11.6088C4.52799 11.6072 4.74116 11.605 4.95435 11.6015C5.19962 11.5974 5.44487 11.5959 5.69018 11.5945C5.76649 11.5929 5.8428 11.5913 5.92142 11.5896C6.5113 11.5894 6.5113 11.5894 6.70406 11.7731C6.82082 11.9502 6.85362 12.0561 6.87108 12.2657C6.93665 12.7246 7.14888 13.0417 7.49218 13.3477C7.63484 13.5113 7.64798 13.5509 7.65624 13.7578C7.62499 14 7.62499 14 7.55468 14.1211C7.38102 14.2195 7.26357 14.2462 7.06249 14.25C6.50055 14.015 6.19095 13.5496 5.92797 13.0186C5.87499 12.875 5.87499 12.875 5.87499 12.625C5.83027 12.6256 5.78555 12.6261 5.73947 12.6267C5.31741 12.6317 4.89535 12.6355 4.47326 12.638C4.25627 12.6393 4.03931 12.641 3.82233 12.6439C3.57271 12.6471 3.32312 12.6483 3.07348 12.6494C2.95696 12.6514 2.95696 12.6514 2.83808 12.6533C2.76553 12.6534 2.69298 12.6534 2.61823 12.6534C2.55453 12.654 2.49082 12.6545 2.42519 12.6551C2.19633 12.6158 2.09482 12.5448 1.93749 12.375C1.89991 12.205 1.89991 12.205 1.90201 12.0081C1.90204 11.9343 1.90206 11.8605 1.90208 11.7845C1.9037 11.7051 1.90531 11.6257 1.90697 11.544C1.90741 11.4625 1.90786 11.381 1.90831 11.297C1.9095 11.0808 1.91257 10.8647 1.91603 10.6485C1.91923 10.4277 1.92066 10.2069 1.92223 9.98611C1.92558 9.55322 1.93091 9.12038 1.93749 8.68753C1.87817 8.67806 1.81886 8.66859 1.75774 8.65884C1.21771 8.56532 0.7938 8.21583 0.43749 7.81253C-0.000791967 7.09888 -0.120106 6.36425 0.0405169 5.54275C0.259581 4.88462 0.702796 4.38848 1.31249 4.06253C1.40939 4.02783 1.50687 3.99471 1.60476 3.96289C1.65537 3.94633 1.70599 3.92978 1.75814 3.91273C1.7967 3.90029 1.83526 3.88785 1.87499 3.87503C1.87522 3.83017 1.87545 3.78531 1.87568 3.73909C1.87805 3.31606 1.8816 2.89306 1.88648 2.47006C1.88895 2.25259 1.89096 2.03513 1.89193 1.81765C1.89306 1.56755 1.89618 1.3175 1.8994 1.06741C1.89948 0.989407 1.89956 0.911405 1.89964 0.831039C1.90148 0.722204 1.90148 0.722204 1.90337 0.611171C1.90393 0.547329 1.90448 0.483486 1.90505 0.417709C1.98346 0.012366 2.24055 -0.0314234 2.61351 -0.0333143Z" fill="white"/>
</g>
<defs>
<clipPath id="clip0_18_416">
<rect width="32" height="32" fill="white"/>
</clipPath>
</defs>
</svg>
