<svg width="32" height="32" viewBox="0 0 32 32" fill="none" xmlns="http://www.w3.org/2000/svg">
<g clip-path="url(#clip0_18_404)">
<path d="M8.73822 8.55081C8.7974 8.55004 8.85657 8.54928 8.91754 8.54849C9.50239 8.54728 9.96486 8.5856 10.3959 9.00637C10.7699 9.43305 10.7077 9.89624 10.6874 10.4375C10.7224 10.4365 10.7573 10.4356 10.7933 10.4346C10.9546 10.4306 11.1159 10.4282 11.2773 10.4258C11.3322 10.4242 11.3871 10.4227 11.4437 10.421C12.0792 10.414 12.5781 10.5853 13.039 11.0352C13.408 11.5071 13.5127 12.1919 13.6445 12.7617C13.6618 12.832 13.679 12.9022 13.6968 12.9745C13.7128 13.0431 13.7288 13.1117 13.7453 13.1824C13.7597 13.2435 13.7742 13.3046 13.7891 13.3675C13.8497 13.8737 13.6787 14.3584 13.5432 14.8408C13.5227 14.9145 13.5023 14.9881 13.4813 15.0639C13.4382 15.2188 13.395 15.3737 13.3515 15.5285C13.2851 15.7656 13.2193 16.0029 13.1536 16.2403C13.1116 16.391 13.0696 16.5417 13.0275 16.6924C13.0079 16.7634 12.9882 16.8343 12.9679 16.9075C12.9401 17.0064 12.9401 17.0064 12.9117 17.1073C12.8955 17.1652 12.8793 17.2231 12.8626 17.2827C12.8124 17.4375 12.8124 17.4375 12.6874 17.6875C13.2649 17.6875 13.8424 17.6875 14.4374 17.6875C14.4276 17.3164 14.4276 17.3164 14.4149 16.9453C14.41 16.5759 14.4601 16.358 14.6874 16.0625C14.964 15.8927 15.1737 15.851 15.496 15.8501C15.5777 15.8499 15.6594 15.8496 15.7436 15.8494C15.7857 15.8498 15.8278 15.8502 15.8712 15.8506C15.9996 15.8516 16.1279 15.8506 16.2563 15.8494C16.3788 15.8498 16.3788 15.8498 16.5038 15.8501C16.578 15.8503 16.6523 15.8505 16.7287 15.8508C16.9629 15.878 17.1122 15.9395 17.3124 16.0625C17.5802 16.4105 17.5949 16.6925 17.5781 17.1211C17.5729 17.308 17.5678 17.4949 17.5624 17.6875C18.1193 17.6669 18.6762 17.6463 19.2499 17.625C19.1685 17.3711 19.1685 17.3711 19.0854 17.1121C18.8955 16.5139 18.7202 15.9122 18.5529 15.3073C18.5071 15.1421 18.4603 14.9771 18.4135 14.8122C18.3838 14.7053 18.3542 14.5984 18.3246 14.4915C18.3039 14.4189 18.3039 14.4189 18.2826 14.3449C18.1197 13.7455 18.2136 13.2327 18.3538 12.6331C18.3825 12.5088 18.4095 12.3842 18.4365 12.2595C18.5946 11.5742 18.796 11.0263 19.4037 10.6348C19.8397 10.4363 20.248 10.4208 20.7187 10.4297C20.7761 10.4303 20.8334 10.4308 20.8925 10.4314C21.0325 10.4329 21.1725 10.4349 21.3124 10.4375C21.3095 10.3757 21.3066 10.3138 21.3037 10.25C21.2726 9.32614 21.2726 9.32614 21.5624 9.00003C22.0663 8.56593 22.5351 8.55124 23.1757 8.55081C23.2349 8.55004 23.2941 8.54928 23.355 8.54849C23.9357 8.54729 24.4041 8.58465 24.8334 9.00198C25.1906 9.42459 25.1467 9.90809 25.1249 10.4375C25.1599 10.4365 25.1948 10.4356 25.2308 10.4346C25.3921 10.4306 25.5534 10.4282 25.7148 10.4258C25.7697 10.4242 25.8246 10.4227 25.8812 10.421C26.5167 10.414 27.0156 10.5853 27.4765 11.0352C27.8455 11.5071 27.9502 12.1919 28.082 12.7617C28.1079 12.8671 28.1079 12.8671 28.1343 12.9745C28.1503 13.0431 28.1663 13.1117 28.1828 13.1824C28.1972 13.2435 28.2117 13.3046 28.2266 13.3675C28.2872 13.8737 28.1162 14.3584 27.9807 14.8408C27.9602 14.9145 27.9398 14.9881 27.9188 15.0639C27.8757 15.2188 27.8325 15.3737 27.789 15.5285C27.7226 15.7656 27.6568 16.0029 27.5911 16.2403C27.5491 16.391 27.5071 16.5417 27.465 16.6924C27.4454 16.7634 27.4257 16.8343 27.4054 16.9075C27.3776 17.0064 27.3776 17.0064 27.3492 17.1073C27.333 17.1652 27.3168 17.2231 27.3001 17.2827C27.2499 17.4375 27.2499 17.4375 27.1249 17.6875C27.7024 17.6875 28.2799 17.6875 28.8749 17.6875C28.8676 17.3575 28.8676 17.3575 28.858 17.0276C28.8544 16.6999 28.9077 16.4776 29.0624 16.1875C29.4552 15.8235 29.8073 15.8594 30.3166 15.8566C30.4517 15.8555 30.5867 15.8528 30.7219 15.85C30.8084 15.8494 30.8949 15.8488 30.9814 15.8484C31.099 15.847 31.099 15.847 31.219 15.8457C31.5317 15.8877 31.7223 16.0088 31.9153 16.2578C32.0256 16.4921 32.0261 16.703 32.0242 16.9566C32.0247 17.0347 32.0247 17.0347 32.0252 17.1144C32.0261 17.2888 32.0256 17.4631 32.0252 17.6375C32.0255 17.7625 32.026 17.8876 32.0265 18.0126C32.0276 18.3522 32.0275 18.6918 32.0272 19.0315C32.027 19.3149 32.0274 19.5984 32.0277 19.8818C32.0286 20.5505 32.0285 21.2192 32.0278 21.8879C32.0271 22.5779 32.028 23.2679 32.0297 23.9579C32.031 24.5502 32.0315 25.1425 32.0311 25.7348C32.0309 26.0886 32.031 26.4424 32.0321 26.7962C32.0331 27.1289 32.0328 27.4615 32.0316 27.7942C32.0314 27.9163 32.0316 28.0384 32.0323 28.1605C32.0331 28.3272 32.0324 28.4938 32.0313 28.6605C32.0319 28.7088 32.0325 28.7571 32.0331 28.8069C32.0287 29.13 31.9555 29.3145 31.7499 29.5625C31.4822 29.7376 31.2718 29.774 30.955 29.7749C30.8761 29.7752 30.7973 29.7754 30.716 29.7757C30.6344 29.7749 30.5528 29.7742 30.4687 29.7735C30.3871 29.7742 30.3055 29.7749 30.2214 29.7757C30.1425 29.7754 30.0636 29.7752 29.9824 29.7749C29.9108 29.7747 29.8392 29.7745 29.7654 29.7743C29.5346 29.7467 29.3853 29.6833 29.1874 29.5625C28.7414 28.9839 28.8749 28.7413 28.8749 27.875C25.1418 27.875 21.4087 27.875 17.5624 27.875C17.5624 28.2875 17.5624 28.7 17.5624 29.125C17.2232 29.634 17.2232 29.634 16.8749 29.75C16.6191 29.7656 16.3633 29.7669 16.107 29.7685C15.9815 29.7695 15.856 29.7723 15.7305 29.7751C15.6508 29.7756 15.5711 29.7761 15.489 29.7766C15.4162 29.7775 15.3434 29.7785 15.2684 29.7794C15.0119 29.7428 14.8861 29.6653 14.6874 29.5C14.4374 29.125 14.4374 29.125 14.4374 27.875C10.7043 27.875 6.97119 27.875 3.12494 27.875C3.12494 28.2463 3.12494 28.6175 3.12494 29C2.90959 29.5025 2.90959 29.5025 2.62494 29.6875C2.31627 29.7904 1.99626 29.7665 1.67295 29.7685C1.54812 29.7695 1.42332 29.7723 1.29852 29.7751C0.525299 29.7801 0.525299 29.7801 0.187441 29.5C-0.0184422 29.2348 -0.0268001 28.9923 -0.0242891 28.6684C-0.0246257 28.6164 -0.0249628 28.5643 -0.0253096 28.5107C-0.0262033 28.3363 -0.0257573 28.162 -0.0253124 27.9876C-0.0256688 27.8625 -0.0261041 27.7375 -0.0266123 27.6124C-0.0277348 27.2728 -0.0276599 26.9332 -0.0273037 26.5936C-0.0271107 26.3101 -0.0274906 26.0267 -0.0278683 25.7432C-0.0287466 25.0745 -0.0286481 24.4058 -0.0279369 23.7372C-0.0272193 23.0472 -0.0280996 22.3572 -0.0297747 21.6672C-0.0311588 21.0749 -0.0315742 20.4826 -0.0312071 19.8903C-0.0309963 19.5365 -0.0311489 19.1827 -0.0322227 18.8289C-0.0331884 18.4962 -0.0329434 18.1635 -0.0317659 17.8308C-0.0315352 17.7087 -0.0317309 17.5867 -0.0323839 17.4646C-0.0332074 17.2979 -0.0324898 17.1312 -0.0313845 16.9646C-0.0322849 16.8921 -0.0322845 16.8921 -0.0332031 16.8182C-0.0287921 16.4948 0.0463401 16.3119 0.249941 16.0625C0.587453 15.7924 0.982749 15.8447 1.39321 15.8471C1.52671 15.8477 1.66004 15.8459 1.79352 15.8439C1.87917 15.8438 1.96483 15.8438 2.05048 15.844C2.1277 15.8439 2.20491 15.8438 2.28447 15.8437C2.58916 15.888 2.78346 16.0241 2.98822 16.25C3.10984 16.4549 3.13283 16.6464 3.13104 16.8819C3.13089 16.9244 3.13073 16.9669 3.13057 17.0107C3.13 17.0639 3.12943 17.1171 3.12885 17.1719C3.12756 17.3421 3.12627 17.5122 3.12494 17.6875C3.68182 17.6669 4.23869 17.6463 4.81244 17.625C4.76902 17.4884 4.72559 17.3517 4.68085 17.211C4.49522 16.62 4.32379 16.0251 4.15593 15.4288C4.12197 15.3087 4.08773 15.1886 4.05321 15.0685C4.00251 14.8922 3.95267 14.7157 3.90302 14.5391C3.88759 14.486 3.87217 14.433 3.85627 14.3783C3.68557 13.7623 3.775 13.2409 3.91969 12.6262C3.94904 12.5005 3.97679 12.3746 4.00446 12.2486C4.16275 11.5523 4.39457 11.0329 4.99994 10.625C5.555 10.3246 6.26443 10.4202 6.87494 10.4375C6.87204 10.3757 6.86914 10.3138 6.86615 10.25C6.83515 9.32614 6.83515 9.32614 7.12494 9.00003C7.62884 8.56593 8.09765 8.55124 8.73822 8.55081ZM7.93744 9.62503C7.8237 9.82922 7.8237 9.82922 7.87494 10.4375C8.47307 10.4375 9.07119 10.4375 9.68744 10.4375C9.68744 10.2107 9.68744 9.98378 9.68744 9.75003C9.42669 9.55142 9.42669 9.55142 9.13251 9.54202C9.07494 9.54234 9.01738 9.54266 8.95807 9.543C8.89841 9.54428 8.83875 9.54557 8.77728 9.5469C8.71738 9.54722 8.65748 9.54755 8.59577 9.54788C8.26121 9.55005 8.26121 9.55005 7.93744 9.62503ZM22.3124 9.68753C22.3124 9.93503 22.3124 10.1825 22.3124 10.4375C22.9106 10.4375 23.5087 10.4375 24.1249 10.4375C24.1249 10.2107 24.1249 9.98378 24.1249 9.75003C23.8651 9.55192 23.8651 9.55192 23.5722 9.53982C23.5149 9.53986 23.4576 9.5399 23.3986 9.53994C23.3392 9.54095 23.2799 9.54196 23.2187 9.543C23.1593 9.54279 23.0999 9.54259 23.0388 9.54239C22.7411 9.54469 22.5866 9.55046 22.3124 9.68753ZM5.26317 11.7125C5.16782 11.8384 5.1375 11.9465 5.10077 12.0999C5.08728 12.1551 5.07378 12.2103 5.05988 12.2672C5.04654 12.3247 5.03321 12.3822 5.01947 12.4414C4.99838 12.528 4.99838 12.528 4.97687 12.6164C4.903 12.8989 4.903 12.8989 4.87494 13.1875C4.93076 13.188 4.98658 13.1885 5.0441 13.1891C5.57013 13.1939 6.09615 13.1994 6.62217 13.2055C6.8926 13.2086 7.16303 13.2115 7.43347 13.2139C7.69446 13.2162 7.95543 13.2191 8.2164 13.2224C8.31597 13.2236 8.41555 13.2245 8.51513 13.2252C8.65459 13.2263 8.79402 13.2281 8.93347 13.2301C9.05255 13.2313 9.05255 13.2313 9.17404 13.2326C9.36267 13.249 9.46999 13.2694 9.62494 13.375C9.72025 13.5656 9.70217 13.7277 9.68744 13.9375C9.62022 14.0435 9.62022 14.0435 9.49994 14.125C9.30418 14.1499 9.30418 14.1499 9.05983 14.1521C9.0153 14.1527 8.97078 14.1533 8.9249 14.154C8.77779 14.1559 8.6307 14.1564 8.48358 14.157C8.38156 14.1581 8.27953 14.1592 8.17751 14.1604C7.90903 14.1634 7.64055 14.1652 7.37206 14.1669C7.09807 14.1687 6.82409 14.1716 6.55011 14.1745C6.01256 14.1798 5.47501 14.1841 4.93744 14.1875C4.96982 14.4269 5.00317 14.6622 5.0632 14.8963C5.08173 14.9689 5.08173 14.9689 5.10062 15.0429C5.15801 15.2617 5.21572 15.4803 5.27435 15.6987C5.30488 15.8134 5.33481 15.9282 5.36414 16.0432C5.55995 16.9388 5.55995 16.9388 6.12494 17.625C6.34722 17.6991 6.54964 17.6977 6.78102 17.6986C6.82861 17.699 6.87619 17.6994 6.92521 17.6998C7.08269 17.7011 7.24017 17.7018 7.39765 17.7024C7.4784 17.7028 7.4784 17.7028 7.56078 17.7032C7.84569 17.7045 8.1306 17.7054 8.41551 17.706C8.70954 17.7067 9.00353 17.7088 9.29755 17.7113C9.52387 17.7129 9.75019 17.7135 9.97651 17.7137C10.0849 17.714 10.1933 17.7147 10.3016 17.7159C10.4535 17.7174 10.6052 17.7173 10.7571 17.7169C10.8016 17.7177 10.8462 17.7185 10.892 17.7193C11.2065 17.7161 11.3822 17.6335 11.6249 17.4375C11.8794 17.1331 11.9651 16.8049 12.0634 16.4287C12.0797 16.3685 12.096 16.3083 12.1128 16.2463C12.1644 16.055 12.215 15.8634 12.2656 15.6719C12.3005 15.5422 12.3355 15.4124 12.3705 15.2827C12.4036 15.1595 12.4367 15.0363 12.4697 14.9131C12.4931 14.8256 12.4931 14.8256 12.517 14.7364C12.5312 14.6825 12.5454 14.6287 12.5601 14.5732C12.5789 14.502 12.5789 14.502 12.5982 14.4294C12.6296 14.3122 12.6296 14.3122 12.6249 14.1875C12.5843 14.1863 12.5436 14.185 12.5017 14.1838C12.3175 14.1778 12.1333 14.171 11.9492 14.1641C11.8531 14.1612 11.8531 14.1612 11.7552 14.1582C11.6938 14.1558 11.6323 14.1534 11.569 14.1509C11.5124 14.1489 11.4558 14.147 11.3974 14.145C11.2499 14.125 11.2499 14.125 11.0624 14C10.9918 13.773 10.9805 13.6668 11.082 13.4492C11.1874 13.3125 11.1874 13.3125 11.3124 13.25C11.412 13.2405 11.5119 13.2345 11.6118 13.2303C11.6706 13.2276 11.7294 13.225 11.79 13.2223C11.8515 13.2199 11.9131 13.2174 11.9765 13.2149C12.0385 13.2122 12.1006 13.2095 12.1645 13.2067C12.318 13.2001 12.4714 13.1937 12.6249 13.1875C12.5644 12.2955 12.5644 12.2955 12.1249 11.5625C11.8331 11.4057 11.5491 11.4195 11.2264 11.4204C11.1678 11.42 11.1092 11.4197 11.0489 11.4194C10.8556 11.4185 10.6623 11.4186 10.4689 11.4187C10.3344 11.4185 10.1998 11.4182 10.0652 11.4179C9.78323 11.4175 9.50126 11.4175 9.21929 11.4178C8.85815 11.4182 8.49704 11.4171 8.1359 11.4157C7.858 11.4147 7.58011 11.4147 7.30221 11.4149C7.16907 11.4148 7.03593 11.4145 6.90279 11.4139C6.71654 11.4131 6.53032 11.4135 6.34407 11.4143C6.28922 11.4138 6.23437 11.4133 6.17786 11.4128C5.81274 11.4159 5.55784 11.4818 5.26317 11.7125ZM19.7007 11.7125C19.6053 11.8384 19.575 11.9465 19.5383 12.0999C19.5248 12.1551 19.5113 12.2103 19.4974 12.2672C19.484 12.3247 19.4707 12.3822 19.457 12.4414C19.4359 12.528 19.4359 12.528 19.4144 12.6164C19.3405 12.8989 19.3405 12.8989 19.3124 13.1875C21.8699 13.1875 24.4274 13.1875 27.0624 13.1875C26.9989 12.3014 26.9989 12.3014 26.5624 11.5625C26.2706 11.4057 25.9866 11.4195 25.6639 11.4204C25.6053 11.42 25.5467 11.4197 25.4864 11.4194C25.2931 11.4185 25.0998 11.4186 24.9064 11.4187C24.7719 11.4185 24.6373 11.4182 24.5027 11.4179C24.2207 11.4175 23.9388 11.4175 23.6568 11.4178C23.2957 11.4182 22.9345 11.4171 22.5734 11.4157C22.2955 11.4147 22.0176 11.4147 21.7397 11.4149C21.6066 11.4148 21.4734 11.4145 21.3403 11.4139C21.154 11.4131 20.9678 11.4135 20.7816 11.4143C20.7267 11.4138 20.6719 11.4133 20.6154 11.4128C20.2502 11.4159 19.9953 11.4818 19.7007 11.7125ZM19.3749 14.1875C19.4207 14.5843 19.4207 14.5843 19.5047 14.9631C19.5178 15.0108 19.531 15.0586 19.5445 15.1078C19.5587 15.1576 19.5728 15.2073 19.5873 15.2586C19.6021 15.3112 19.6168 15.3639 19.632 15.4181C19.663 15.5286 19.6942 15.6391 19.7256 15.7495C19.7734 15.918 19.8203 16.0867 19.8671 16.2555C19.8975 16.3633 19.9279 16.4711 19.9584 16.5789C19.9792 16.6541 19.9792 16.6541 20.0005 16.7308C20.1038 17.0906 20.1842 17.3508 20.507 17.5691C20.7493 17.7026 20.9738 17.723 21.2469 17.7199C21.3183 17.7205 21.3183 17.7205 21.3912 17.7212C21.5473 17.7223 21.7034 17.7216 21.8596 17.7207C21.9687 17.7209 22.0779 17.7211 22.1871 17.7215C22.4154 17.7218 22.6436 17.7213 22.8719 17.7201C23.1639 17.7187 23.4559 17.7195 23.748 17.721C23.9733 17.7219 24.1985 17.7216 24.4237 17.721C24.5314 17.7208 24.6391 17.721 24.7468 17.7216C24.8974 17.7222 25.0479 17.7213 25.1986 17.7199C25.2427 17.7204 25.2868 17.7209 25.3323 17.7214C25.6958 17.7152 25.9204 17.5836 26.1704 17.3265C26.2817 17.1321 26.3393 16.9277 26.3984 16.7132C26.4115 16.6669 26.4247 16.6206 26.4383 16.5729C26.466 16.4749 26.4935 16.3768 26.5208 16.2787C26.5618 16.1312 26.6035 15.984 26.6454 15.8368C26.6725 15.7409 26.6995 15.645 26.7265 15.5491C26.7386 15.5062 26.7507 15.4634 26.7632 15.4192C26.8764 15.0106 26.9668 14.602 27.0624 14.1875C24.5256 14.1875 21.9887 14.1875 19.3749 14.1875ZM0.937441 16.875C0.937441 17.1432 0.937441 17.4113 0.937441 17.6875C1.32932 17.6875 1.72119 17.6875 2.12494 17.6875C2.12494 17.4194 2.12494 17.1513 2.12494 16.875C1.73307 16.875 1.34119 16.875 0.937441 16.875ZM15.4374 16.875C15.4374 17.1432 15.4374 17.4113 15.4374 17.6875C15.8087 17.6875 16.1799 17.6875 16.5624 17.6875C16.5624 17.4194 16.5624 17.1513 16.5624 16.875C16.1912 16.875 15.8199 16.875 15.4374 16.875ZM29.8749 16.875C29.8749 17.1432 29.8749 17.4113 29.8749 17.6875C30.2668 17.6875 30.6587 17.6875 31.0624 17.6875C31.0624 17.4194 31.0624 17.1513 31.0624 16.875C30.6706 16.875 30.2787 16.875 29.8749 16.875ZM0.937441 18.6875C0.937441 21.3894 0.937441 24.0913 0.937441 26.875C1.32932 26.875 1.72119 26.875 2.12494 26.875C2.12494 24.1732 2.12494 21.4713 2.12494 18.6875C1.73307 18.6875 1.34119 18.6875 0.937441 18.6875ZM3.12494 18.6875C3.12494 21.3894 3.12494 24.0913 3.12494 26.875C6.85807 26.875 10.5912 26.875 14.4374 26.875C14.4374 24.1732 14.4374 21.4713 14.4374 18.6875C10.7043 18.6875 6.97119 18.6875 3.12494 18.6875ZM15.4374 18.6875C15.4374 21.3894 15.4374 24.0913 15.4374 26.875C15.8087 26.875 16.1799 26.875 16.5624 26.875C16.5624 24.1732 16.5624 21.4713 16.5624 18.6875C16.1912 18.6875 15.8199 18.6875 15.4374 18.6875ZM17.5624 18.6875C17.5624 21.3894 17.5624 24.0913 17.5624 26.875C22.0174 26.875 26.4724 26.875 31.0624 26.875C31.0624 24.1732 31.0624 21.4713 31.0624 18.6875C30.6706 18.6875 30.2787 18.6875 29.8749 18.6875C29.8746 18.7717 29.8742 18.8558 29.8738 18.9425C29.8703 19.7344 29.8657 20.5262 29.8602 21.3181C29.8574 21.7252 29.855 22.1323 29.8533 22.5395C29.8517 22.9322 29.8491 23.3248 29.846 23.7175C29.8449 23.8675 29.8442 24.0176 29.8438 24.1676C29.8432 24.3773 29.8415 24.5869 29.8395 24.7966C29.8396 24.8591 29.8396 24.9215 29.8397 24.9858C29.839 25.0429 29.8382 25.0999 29.8374 25.1587C29.8371 25.2083 29.8368 25.2579 29.8365 25.309C29.806 25.4721 29.7578 25.5277 29.6249 25.625C29.352 25.6494 29.2309 25.654 28.9999 25.5C28.9419 25.3258 28.929 25.2187 28.9276 25.0385C28.9269 24.9826 28.9263 24.9267 28.9257 24.8691C28.9253 24.8077 28.925 24.7463 28.9246 24.6831C28.9237 24.5846 28.9237 24.5846 28.9227 24.484C28.9207 24.271 28.9192 24.058 28.9177 23.845C28.9165 23.7136 28.9153 23.5823 28.9141 23.4509C28.9099 22.9634 28.9061 22.4758 28.9023 21.9883C28.8933 20.899 28.8842 19.8098 28.8749 18.6875C25.1418 18.6875 21.4087 18.6875 17.5624 18.6875ZM0.937441 27.875C0.937441 28.1638 0.937441 28.4525 0.937441 28.75C1.32932 28.75 1.72119 28.75 2.12494 28.75C2.12494 28.4613 2.12494 28.1725 2.12494 27.875C1.73307 27.875 1.34119 27.875 0.937441 27.875ZM15.4374 27.875C15.4374 28.1638 15.4374 28.4525 15.4374 28.75C15.8087 28.75 16.1799 28.75 16.5624 28.75C16.5624 28.4613 16.5624 28.1725 16.5624 27.875C16.1912 27.875 15.8199 27.875 15.4374 27.875ZM29.8749 27.875C29.8749 28.1638 29.8749 28.4525 29.8749 28.75C30.2668 28.75 30.6587 28.75 31.0624 28.75C31.0624 28.4613 31.0624 28.1725 31.0624 27.875C30.6706 27.875 30.2787 27.875 29.8749 27.875Z" fill="white"/>
<path d="M19.3645 2.22904C19.4239 2.22862 19.4833 2.22821 19.5445 2.22778C19.67 2.22715 19.7955 2.22685 19.921 2.22687C20.112 2.2266 20.3028 2.22433 20.4938 2.22196C20.616 2.22159 20.7383 2.22135 20.8606 2.22123C20.9455 2.21988 20.9455 2.21988 21.0321 2.21851C21.4426 2.22143 21.7898 2.30066 22.0954 2.5905C22.3994 2.94037 22.4568 3.1998 22.4563 3.6558C22.4566 3.70727 22.4568 3.75874 22.4571 3.81178C22.4575 3.92052 22.4575 4.02926 22.4572 4.13801C22.457 4.30371 22.4585 4.46935 22.4601 4.63505C22.4602 4.74092 22.4603 4.8468 22.4602 4.95267C22.4608 5.0019 22.4614 5.05113 22.4619 5.10186C22.4587 5.49177 22.3646 5.74531 22.1016 6.043C21.6658 6.42692 21.2498 6.44714 20.6838 6.44803C20.6137 6.44835 20.6137 6.44835 20.5422 6.44866C20.4439 6.44898 20.3456 6.44913 20.2474 6.44912C20.0983 6.44925 19.9492 6.45039 19.8002 6.45157C19.7041 6.45176 19.608 6.45188 19.512 6.45194C19.4461 6.45261 19.4461 6.45261 19.3789 6.4533C18.9089 6.45117 18.4996 6.36582 18.125 6.06254C18.0522 5.92924 18.0522 5.92924 18 5.81254C17.9442 5.8128 17.9442 5.8128 17.8872 5.81306C16.98 5.81721 16.0728 5.82031 15.1656 5.82225C14.7269 5.82322 14.2882 5.82453 13.8495 5.82668C13.426 5.82875 13.0025 5.82984 12.579 5.83033C12.4175 5.83067 12.2561 5.83135 12.0946 5.83236C11.8682 5.83372 11.6419 5.83391 11.4155 5.83382C11.3157 5.83483 11.3157 5.83483 11.2138 5.83587C10.7758 5.83405 10.4158 5.78828 10.0496 5.5264C9.6772 5.13865 9.55349 4.85379 9.53516 4.31644C9.54782 3.81902 9.65195 3.51188 10.0117 3.168C10.4165 2.85771 10.8662 2.78431 11.3648 2.78827C11.4428 2.78778 11.4428 2.78778 11.5224 2.78728C11.6924 2.78646 11.8623 2.787 12.0322 2.78763C12.1512 2.78751 12.2701 2.78733 12.3891 2.78709C12.6375 2.78681 12.8858 2.78721 13.1342 2.78809C13.4523 2.78916 13.7704 2.78854 14.0885 2.78742C14.3338 2.78674 14.579 2.78696 14.8243 2.78745C14.9416 2.78757 15.0589 2.78742 15.1762 2.78698C15.34 2.7865 15.5038 2.78723 15.6675 2.78827C15.7158 2.7879 15.764 2.78752 15.8138 2.78712C16.0945 2.79043 16.2771 2.82537 16.5 3.00004C16.5966 3.19327 16.5808 3.34968 16.5625 3.56254C16.4686 3.69969 16.4686 3.69969 16.3125 3.81254C16.132 3.83708 15.9751 3.84655 15.7947 3.84467C15.7166 3.84534 15.7166 3.84534 15.6369 3.84602C15.465 3.84723 15.2931 3.84671 15.1211 3.84623C15.0015 3.84685 14.882 3.84759 14.7624 3.84846C14.4477 3.85049 14.133 3.85113 13.8183 3.85139C13.3145 3.85194 12.8107 3.85415 12.307 3.85715C12.1309 3.85794 11.9549 3.85789 11.7789 3.85776C11.6711 3.85817 11.5632 3.85861 11.4553 3.85908C11.4064 3.85882 11.3574 3.85856 11.3069 3.85829C10.9774 3.8601 10.9774 3.8601 10.6875 4.00004C10.5911 4.19274 10.6064 4.35058 10.625 4.56254C10.7989 4.73335 10.9258 4.77359 11.1661 4.77496C11.2534 4.77613 11.2534 4.77613 11.3424 4.77733C11.4375 4.7772 11.4375 4.7772 11.5345 4.77706C11.6016 4.7777 11.6687 4.77833 11.7378 4.77899C11.9596 4.78088 12.1815 4.78145 12.4033 4.78202C12.5571 4.78307 12.7109 4.78421 12.8647 4.78542C13.2695 4.78839 13.6743 4.79025 14.0792 4.79188C14.4922 4.79374 14.9053 4.79665 15.3184 4.79947C16.1289 4.80486 16.9394 4.8091 17.75 4.81254C17.7485 4.7483 17.7485 4.7483 17.747 4.68278C17.7431 4.48645 17.7407 4.29013 17.7383 4.09379C17.7367 4.02643 17.7351 3.95908 17.7335 3.88968C17.7293 3.43152 17.7488 3.03909 18.0542 2.6724C18.0956 2.63872 18.137 2.60505 18.1797 2.57035C18.2208 2.53571 18.2619 2.50106 18.3042 2.46537C18.6482 2.23223 18.9613 2.23002 19.3645 2.22904ZM18.8304 3.33406C18.7063 3.49379 18.7268 3.63275 18.7273 3.83207C18.7273 3.90957 18.7274 3.98708 18.7274 4.06693C18.7284 4.14798 18.7294 4.22903 18.7305 4.31254C18.7303 4.39359 18.7301 4.47464 18.7299 4.55814C18.7139 4.99074 18.7139 4.99074 18.875 5.37504C19.0986 5.44958 19.304 5.44885 19.5369 5.45023C19.5832 5.45059 19.6295 5.45094 19.6772 5.45131C19.7751 5.4519 19.8729 5.45231 19.9708 5.45255C20.1203 5.45316 20.2698 5.4551 20.4193 5.45707C20.5145 5.45748 20.6097 5.4578 20.7048 5.45804C20.7717 5.4592 20.7717 5.4592 20.84 5.46038C21.0257 5.45955 21.1706 5.4451 21.3409 5.36901C21.4853 5.19117 21.4678 5.05252 21.4663 4.82596C21.4663 4.78491 21.4662 4.74385 21.4661 4.70155C21.4658 4.61492 21.4648 4.52829 21.4632 4.44167C21.4609 4.30887 21.4607 4.17619 21.4607 4.04337C21.4914 3.60962 21.4914 3.60962 21.3125 3.25004C21.1354 3.23677 20.9646 3.23104 20.7874 3.23124C20.7353 3.23097 20.6832 3.2307 20.6295 3.23043C20.5192 3.23007 20.4089 3.23004 20.2987 3.23031C20.1298 3.2305 19.961 3.22904 19.7921 3.22745C19.6851 3.22731 19.578 3.22727 19.4709 3.22733C19.3951 3.22647 19.3951 3.22647 19.3176 3.22559C19.0562 3.2207 19.0562 3.2207 18.8304 3.33406Z" fill="white"/>
<path d="M23.125 19.9375C23.3043 19.9161 23.4534 19.8696 23.625 19.8125C24.0133 19.7808 24.3618 19.7631 24.6875 20C24.8947 20.2028 25.0889 20.3943 25.1836 20.6718C25.2646 20.8435 25.3152 20.8538 25.4843 20.9296C25.8386 21.0894 26.0398 21.3334 26.2148 21.6757C26.2779 22.0335 26.2094 22.3801 26.1445 22.7343C26.1223 22.9653 26.1732 23.0959 26.25 23.3125C26.282 23.6584 26.2358 23.9492 26.0625 24.25C25.8696 24.4668 25.653 24.6143 25.3945 24.7421C25.1556 24.8954 25.1107 25.002 25.0012 25.2522C24.8657 25.5134 24.6475 25.6486 24.3828 25.7695C24.089 25.8341 23.8123 25.8642 23.5273 25.7461C23.2615 25.6438 23.0122 25.725 22.75 25.8125C22.3088 25.8419 22.0245 25.7581 21.6445 25.5195C21.4555 25.3305 21.3462 25.1233 21.25 24.875C21.25 24.8337 21.25 24.7925 21.25 24.75C21.1855 24.7358 21.1211 24.7216 21.0546 24.707C20.729 24.6127 20.5193 24.4243 20.3203 24.1523C20.1935 23.7649 20.1899 23.3301 20.3203 22.9414C20.3869 22.7081 20.3385 22.6561 20.25 22.4375C20.193 22.003 20.2092 21.647 20.4736 21.2883C20.6517 21.0863 20.8169 20.9611 21.0664 20.8593C21.2924 20.7247 21.3305 20.6081 21.4338 20.375C21.5653 20.1265 21.7757 19.9954 22.0156 19.8554C22.4055 19.7579 22.7574 19.78 23.125 19.9375ZM22.375 20.8125C22.3575 20.8487 22.34 20.885 22.322 20.9223C22.0662 21.4207 21.7663 21.7108 21.25 21.9375C21.2878 22.186 21.2878 22.186 21.3476 22.4296C21.4201 22.7816 21.3899 23.0512 21.25 23.375C21.2475 23.4791 21.2472 23.5833 21.25 23.6875C21.2967 23.7102 21.3434 23.7329 21.3916 23.7563C21.8211 23.9756 22.0828 24.1431 22.25 24.6132C22.299 24.7578 22.299 24.7578 22.4257 24.8086C22.5675 24.8222 22.5675 24.8222 22.7058 24.7512C22.8888 24.6823 23.024 24.6707 23.2187 24.6718C23.2761 24.6715 23.3334 24.6712 23.3925 24.6709C23.5625 24.6875 23.5625 24.6875 23.7246 24.7548C23.8692 24.8219 23.8692 24.8219 24.0102 24.8056C24.1683 24.729 24.1998 24.642 24.2734 24.4843C24.4582 24.1283 24.6545 23.9525 25.0195 23.7734C25.2068 23.7023 25.2068 23.7023 25.25 23.5C25.2085 23.3957 25.1668 23.2915 25.125 23.1875C25.0867 22.7742 25.108 22.3903 25.25 22C25.1165 21.8528 24.9979 21.774 24.8164 21.6953C24.505 21.5447 24.3637 21.3609 24.2187 21.0468C24.1432 20.8718 24.1432 20.8718 24.0117 20.8125C23.8668 20.805 23.8668 20.805 23.707 20.8711C23.3272 20.9929 22.988 20.9784 22.625 20.8125C22.5425 20.8125 22.46 20.8125 22.375 20.8125Z" fill="white"/>
<path d="M8.02345 19.8008C8.11119 19.7995 8.11119 19.7995 8.2007 19.7981C8.38549 19.8134 8.51767 19.8663 8.68752 19.9375C8.86681 19.9162 9.016 19.8697 9.18752 19.8125C9.61531 19.7661 9.95916 19.8069 10.3125 20.0625C10.4929 20.2298 10.6112 20.4047 10.707 20.6328C10.8384 20.8566 10.9572 20.8945 11.1875 20.9961C11.4594 21.1405 11.6358 21.4061 11.75 21.6875C11.7821 22.0215 11.7884 22.3633 11.6797 22.6836C11.6131 22.9169 11.6615 22.9689 11.75 23.1875C11.8065 23.6182 11.7927 23.9797 11.5308 24.3364C11.3483 24.5342 11.1587 24.6623 10.8985 24.7305C10.7168 24.8308 10.7092 24.8887 10.6367 25.0781C10.5069 25.4067 10.3074 25.5819 10 25.75C9.68431 25.8513 9.36621 25.852 9.0547 25.7461C8.78209 25.6572 8.57806 25.724 8.31252 25.8125C7.90543 25.8615 7.58653 25.8011 7.25002 25.5625C7.07066 25.3967 6.9523 25.2237 6.85939 24.9961C6.71911 24.7606 6.5655 24.7015 6.32643 24.5798C6.05921 24.4263 5.91875 24.2229 5.79299 23.9414C5.72745 23.6495 5.71578 23.4092 5.81642 23.125C5.89004 22.8894 5.85692 22.7422 5.81252 22.5C5.74336 22.0897 5.70378 21.738 5.93752 21.375C6.13454 21.1593 6.33035 20.974 6.60939 20.8789C6.78052 20.7981 6.78888 20.7508 6.8633 20.582C7.0025 20.2694 7.22328 20.071 7.50002 19.875C7.68972 19.8118 7.82485 19.8021 8.02345 19.8008ZM7.93752 20.8125C7.81613 20.9642 7.72673 21.1075 7.63674 21.2812C7.47522 21.5698 7.23235 21.6904 6.94924 21.8477C6.79361 21.9297 6.79361 21.9297 6.75002 22.125C6.79144 22.2293 6.83314 22.3334 6.87502 22.4375C6.91331 22.8508 6.89196 23.2346 6.75002 23.625C6.89122 23.739 7.01691 23.82 7.18361 23.8945C7.48147 24.0587 7.64138 24.2772 7.78517 24.582C7.85744 24.7546 7.85744 24.7546 7.9922 24.8125C8.1307 24.8212 8.1307 24.8212 8.26857 24.751C8.68584 24.5942 9.15167 24.6664 9.56252 24.8125C9.71027 24.6792 9.78221 24.5665 9.85549 24.3828C10.0378 24 10.3865 23.8676 10.75 23.6875C10.7214 23.4707 10.6943 23.2704 10.625 23.0625C10.6085 22.7267 10.6435 22.5071 10.75 22.1875C10.7709 22.0208 10.7709 22.0208 10.6875 21.875C10.5676 21.802 10.4444 21.7461 10.3164 21.6885C9.94346 21.5048 9.78576 21.1744 9.62502 20.8125C9.42983 20.8429 9.25028 20.8749 9.06252 20.9375C8.67209 20.9712 8.31416 20.9122 7.93752 20.8125Z" fill="white"/>
<path d="M23.4375 22.3125C23.5859 22.3789 23.5859 22.3789 23.6875 22.5C23.742 22.7143 23.7706 22.8683 23.707 23.082C23.6018 23.2173 23.5405 23.2633 23.375 23.3125C23.1655 23.3015 23.0016 23.2852 22.8164 23.1836C22.7066 22.9835 22.7112 22.7815 22.75 22.5625C22.9281 22.2775 23.1174 22.2725 23.4375 22.3125Z" fill="white"/>
<path d="M9 22.3125C9.15234 22.4062 9.15234 22.4062 9.25 22.5625C9.28813 22.7381 9.29085 22.8873 9.25 23.0625C9.12109 23.2227 9.12109 23.2227 8.9375 23.3125C8.71895 23.3087 8.56886 23.2936 8.38281 23.1758C8.27984 23.0099 8.25779 22.8823 8.25 22.6875C8.42599 22.3104 8.59306 22.2774 9 22.3125Z" fill="white"/>
</g>
<defs>
<clipPath id="clip0_18_404">
<rect width="32" height="32" fill="white"/>
</clipPath>
</defs>
</svg>
