<svg width="32" height="32" viewBox="0 0 32 32" fill="none" xmlns="http://www.w3.org/2000/svg">
<g clip-path="url(#clip0_18_395)">
<path d="M10.3103 0.171212C10.3861 0.170853 10.3861 0.170853 10.4634 0.170487C10.6329 0.169842 10.8024 0.170091 10.9719 0.170339C11.0934 0.170067 11.2148 0.169744 11.3363 0.169371C11.6663 0.168533 11.9964 0.168498 12.3264 0.168656C12.6018 0.168723 12.8772 0.168418 13.1526 0.168118C13.8022 0.167425 14.4518 0.167398 15.1014 0.167776C15.7719 0.168153 16.4424 0.167383 17.1129 0.166052C17.6882 0.164952 18.2636 0.164576 18.839 0.16478C19.1828 0.164893 19.5265 0.164727 19.8703 0.16386C20.1935 0.163076 20.5168 0.163194 20.84 0.164011C20.9587 0.164159 21.0774 0.163987 21.1961 0.163472C21.358 0.16282 21.5199 0.163322 21.6818 0.164116C21.7524 0.163425 21.7524 0.163425 21.8244 0.16272C22.1024 0.165593 22.278 0.205365 22.5 0.375005C22.6226 0.536597 22.6258 0.611752 22.6133 0.816411C22.559 1.01264 22.5352 1.06892 22.375 1.18751C22.1926 1.21949 22.1926 1.21949 21.9883 1.23047C21.8864 1.23664 21.8864 1.23664 21.7825 1.24293C21.7305 1.24526 21.6785 1.2476 21.625 1.25001C21.7624 2.22154 21.9089 3.19126 22.0657 4.15983C22.1383 4.60991 22.2082 5.06006 22.2711 5.5116C22.6626 8.34158 22.6626 8.34158 24.4504 10.4928C24.5266 10.5496 24.603 10.6062 24.6794 10.6627C24.8821 10.818 25.0344 10.9762 25.1941 11.1731C25.3549 11.3624 25.5294 11.536 25.7052 11.7113C25.742 11.7481 25.7789 11.7848 25.8168 11.8227C25.895 11.9006 25.9732 11.9784 26.0514 12.0561C26.1762 12.1801 26.3007 12.3042 26.4252 12.4284C26.6896 12.6921 26.9541 12.9554 27.2188 13.2188C27.5257 13.5242 27.8325 13.8298 28.1391 14.1356C28.2611 14.2572 28.3832 14.3785 28.5054 14.4999C29.3632 15.3542 29.3632 15.3542 29.7188 15.8357C30.0334 16.2229 30.0334 16.2229 30.4832 16.4104C30.8029 16.4402 31.117 16.4358 31.4375 16.4258C31.7278 16.4229 31.7278 16.4229 31.9158 16.5469C32.0025 16.6917 32.0355 16.7701 32.0352 16.9375C32.0365 16.9788 32.0379 17.02 32.0393 17.0625C32 17.1875 32 17.1875 31.6875 17.4375C30.945 17.4375 30.2025 17.4375 29.4375 17.4375C29.4375 21.15 29.4375 24.8625 29.4375 28.6875C29.6025 28.6875 29.7675 28.6875 29.9375 28.6875C30.2312 28.7948 30.3881 28.9291 30.5625 29.1875C30.6744 29.5233 30.6419 29.8829 30.6445 30.2344C30.6463 30.3133 30.6482 30.3923 30.65 30.4736C30.653 30.9114 30.6492 31.212 30.375 31.5625C30.0414 31.8191 29.6902 31.8218 29.2833 31.8205C29.2133 31.8207 29.2133 31.8207 29.1419 31.8209C28.9851 31.8212 28.8282 31.821 28.6714 31.8209C28.558 31.821 28.4446 31.8211 28.3312 31.8213C28.0192 31.8217 27.7072 31.8217 27.3952 31.8216C27.0589 31.8216 26.7226 31.8219 26.3862 31.8222C25.7272 31.8227 25.0681 31.8229 24.4091 31.8229C23.8735 31.823 23.338 31.8231 22.8024 31.8233C21.2847 31.8239 19.7669 31.8241 18.2492 31.8241C18.1674 31.8241 18.0855 31.8241 18.0012 31.8241C17.9192 31.8241 17.8373 31.8241 17.7529 31.8241C16.4243 31.8241 15.0957 31.8247 13.7672 31.8255C12.4037 31.8264 11.0403 31.8269 9.67686 31.8268C8.9111 31.8268 8.14535 31.827 7.37959 31.8276C6.72769 31.8282 6.07579 31.8283 5.42389 31.8279C5.09118 31.8277 4.75848 31.8277 4.42577 31.8282C4.12129 31.8287 3.81681 31.8287 3.51232 31.8281C3.40209 31.828 3.29185 31.8281 3.18162 31.8285C3.03189 31.8289 2.88217 31.8286 2.73244 31.8281C2.68956 31.8284 2.64668 31.8287 2.6025 31.829C2.23286 31.8263 1.92329 31.7811 1.63672 31.5391C1.30407 31.1399 1.3542 30.7608 1.35547 30.2578C1.35446 30.1786 1.35345 30.0994 1.35242 30.0178C1.35238 29.9412 1.35234 29.8646 1.35229 29.7856C1.35211 29.7159 1.35192 29.6461 1.35173 29.5743C1.38758 29.2673 1.49284 29.0644 1.71875 28.8555C1.92624 28.7154 2.07945 28.6796 2.32422 28.6836C2.40285 28.6849 2.48148 28.6862 2.5625 28.6875C2.56221 28.6372 2.56192 28.5868 2.56163 28.535C2.55473 27.3107 2.54956 26.0865 2.54631 24.8623C2.5447 24.2703 2.5425 23.6782 2.53893 23.0862C2.53581 22.5703 2.53379 22.0544 2.5331 21.5384C2.53269 21.2652 2.53173 20.9919 2.52946 20.7187C2.52734 20.4616 2.52668 20.2045 2.52715 19.9473C2.52707 19.8529 2.52644 19.7585 2.52525 19.6641C2.5237 19.5352 2.52407 19.4065 2.52492 19.2776C2.52463 19.2055 2.52434 19.1333 2.52405 19.059C2.5625 18.875 2.5625 18.875 2.70914 18.7266C2.91098 18.603 3.01711 18.5903 3.25 18.625C3.44599 18.7362 3.49006 18.7827 3.5625 19C3.56812 19.1031 3.57012 19.2064 3.57002 19.3097C3.5701 19.3735 3.57019 19.4374 3.57028 19.5033C3.56994 19.6083 3.56994 19.6083 3.5696 19.7155C3.5696 19.7893 3.56961 19.8631 3.56962 19.9391C3.56959 20.1414 3.56927 20.3438 3.56884 20.5461C3.56845 20.7576 3.56841 20.969 3.56834 21.1805C3.56814 21.5809 3.56763 21.9813 3.567 22.3817C3.5663 22.8376 3.56596 23.2934 3.56565 23.7493C3.56499 24.687 3.56385 25.6248 3.5625 26.5625C4.16062 26.5625 4.75875 26.5625 5.375 26.5625C5.375 23.5513 5.375 20.54 5.375 17.4375C3.72299 17.4474 3.72299 17.4474 2.071 17.46C1.75106 17.4612 1.75106 17.4612 1.60115 17.4614C1.49674 17.4617 1.39232 17.4626 1.28791 17.4639C1.12949 17.4657 0.971132 17.466 0.812698 17.4659C0.766395 17.4668 0.720092 17.4677 0.672386 17.4686C0.444551 17.4668 0.321009 17.443 0.127444 17.3185C0 17.1875 0 17.1875 -0.0393066 17.0625C-0.037937 17.0213 -0.0365674 16.98 -0.0351562 16.9375C-0.0352368 16.8963 -0.0353174 16.855 -0.0354004 16.8125C0.0205305 16.615 0.0763983 16.5514 0.25 16.4375C0.409484 16.43 0.56367 16.4424 0.7229 16.4537C1.23476 16.4841 1.62608 16.4636 2.03101 16.125C2.28379 15.882 2.5169 15.6234 2.73914 15.3523C3.14626 14.8585 3.58621 14.4061 4.03987 13.9554C4.16252 13.8336 4.28497 13.7115 4.40736 13.5895C4.71122 13.2864 5.01542 12.9837 5.3196 12.6811C5.57733 12.4246 5.83492 12.1679 6.09234 11.9112C6.21224 11.7917 6.33232 11.6724 6.45241 11.5531C6.52682 11.4789 6.6012 11.4048 6.67554 11.3306C6.72842 11.2778 6.72842 11.2778 6.78237 11.224C6.96051 11.045 7.12854 10.8633 7.2887 10.6677C7.45323 10.4718 7.63164 10.3421 7.84338 10.199C9.22533 9.18808 9.37153 7.66158 9.62061 6.073C9.65458 5.85064 9.6876 5.62813 9.72044 5.40559C9.7878 4.95085 9.8623 4.49736 9.93728 4.04382C10.0909 3.11369 10.2359 2.18242 10.375 1.25001C10.323 1.24767 10.2711 1.24533 10.2175 1.24293C10.1496 1.23882 10.0817 1.23471 10.0117 1.23047C9.94428 1.22685 9.87685 1.22322 9.80737 1.21949C9.61158 1.18515 9.55113 1.15924 9.4375 1.00001C9.36972 0.777307 9.35619 0.668572 9.44922 0.45313C9.68714 0.157774 9.95129 0.169416 10.3103 0.171212ZM11.4375 1.18751C11.159 2.53881 10.9153 3.89558 10.6742 5.25397C10.6164 5.57939 10.5582 5.90474 10.5 6.23007C10.4548 6.48257 10.4099 6.73512 10.365 6.98767C10.3436 7.1078 10.3222 7.2279 10.3006 7.348C10.2708 7.51461 10.2413 7.68128 10.2118 7.84797C10.1985 7.9215 10.1985 7.9215 10.185 7.99651C10.1435 8.23379 10.125 8.44477 10.125 8.6875C10.8056 8.6875 11.4862 8.6875 12.1875 8.6875C12.3274 7.27188 12.4553 5.85561 12.5761 4.43824C12.6009 4.14721 12.6259 3.8562 12.6511 3.5652C12.6707 3.33798 12.6901 3.11074 12.7095 2.8835C12.7187 2.77605 12.7279 2.66861 12.7372 2.56117C12.7501 2.41226 12.7627 2.26332 12.7753 2.11439C12.781 2.04943 12.781 2.04943 12.7868 1.98316C12.8091 1.7152 12.8125 1.45807 12.8125 1.18751C12.3588 1.18751 11.905 1.18751 11.4375 1.18751ZM13.8125 1.18751C13.5548 4.04068 13.5548 4.04068 13.3052 6.89457C13.2945 7.01891 13.2837 7.14326 13.273 7.2676C13.2581 7.43856 13.2435 7.60954 13.229 7.78052C13.2247 7.82955 13.2204 7.87858 13.216 7.92909C13.1946 8.18418 13.1875 8.43063 13.1875 8.6875C15.0437 8.6875 16.9 8.6875 18.8125 8.6875C18.7645 7.7945 18.7645 7.7945 18.698 6.90342C18.6932 6.84675 18.6884 6.79009 18.6835 6.73171C18.6681 6.54948 18.6524 6.36727 18.6367 6.18506C18.6257 6.05615 18.6148 5.92724 18.6038 5.79832C18.581 5.53055 18.5581 5.26279 18.5351 4.99503C18.5057 4.6528 18.4766 4.31055 18.4475 3.9683C18.4249 3.70309 18.4023 3.4379 18.3796 3.17271C18.3688 3.04648 18.358 2.92024 18.3473 2.79401C18.3323 2.61791 18.3172 2.44181 18.302 2.26572C18.2976 2.21435 18.2933 2.16298 18.2888 2.11005C18.2846 2.06156 18.2804 2.01306 18.2761 1.9631C18.2725 1.9217 18.269 1.8803 18.2653 1.83764C18.2432 1.62051 18.2146 1.40408 18.1875 1.18751C17.6306 1.18751 17.0737 1.18751 16.5 1.18751C16.4988 1.36828 16.4975 1.54906 16.4962 1.73531C16.4921 2.33178 16.4872 2.92824 16.482 3.5247C16.4789 3.88643 16.476 4.24815 16.4736 4.60988C16.4713 4.9588 16.4684 5.30771 16.4651 5.65662C16.464 5.78992 16.463 5.92321 16.4623 6.05651C16.4612 6.24283 16.4594 6.42913 16.4574 6.61544C16.4573 6.67087 16.4572 6.7263 16.457 6.78341C16.4563 6.83415 16.4556 6.88489 16.4549 6.93717C16.4544 7.00328 16.4544 7.00328 16.4539 7.07073C16.4375 7.18751 16.4375 7.18751 16.3125 7.37501C16.0955 7.42724 15.9402 7.45982 15.7266 7.38672C15.625 7.31251 15.625 7.31251 15.5625 7.18751C15.5548 6.99876 15.5509 6.81136 15.5497 6.62253C15.549 6.56399 15.5484 6.50545 15.5478 6.44514C15.5458 6.25103 15.5443 6.05691 15.5427 5.8628C15.5414 5.72846 15.5401 5.59411 15.5388 5.45977C15.5353 5.1057 15.5322 4.75163 15.5292 4.39755C15.5261 4.03644 15.5226 3.67533 15.5192 3.31421C15.5124 2.60531 15.5061 1.89641 15.5 1.18751C14.9431 1.18751 14.3862 1.18751 13.8125 1.18751ZM19.1875 1.18751C19.2281 2.04211 19.2889 2.89262 19.3633 3.74488C19.3743 3.8723 19.3852 3.99972 19.3962 4.12715C19.419 4.39161 19.4419 4.65605 19.4649 4.92049C19.4943 5.25844 19.5235 5.59642 19.5525 5.9344C19.5751 6.19644 19.5977 6.45847 19.6204 6.7205C19.6312 6.84516 19.642 6.96982 19.6527 7.09449C19.6677 7.26834 19.6828 7.44218 19.698 7.61602C19.7024 7.66671 19.7067 7.71739 19.7112 7.76962C19.7154 7.8175 19.7196 7.86537 19.7239 7.9147C19.7275 7.95556 19.731 7.99642 19.7347 8.03852C19.757 8.25526 19.7855 8.47131 19.8125 8.6875C20.4931 8.6875 21.1737 8.6875 21.875 8.6875C21.8327 8.22167 21.7808 7.77466 21.6974 7.31678C21.6859 7.25236 21.6744 7.18794 21.6626 7.12158C21.6249 6.91108 21.5869 6.70066 21.5488 6.49024C21.5224 6.34314 21.496 6.19604 21.4697 6.04893C21.4146 5.7419 21.3593 5.4349 21.3039 5.12793C21.2327 4.73406 21.162 4.34013 21.0914 3.94616C21.037 3.643 20.9825 3.33986 20.928 3.03673C20.9018 2.89141 20.8757 2.74608 20.8496 2.60074C20.8133 2.39831 20.7767 2.19592 20.7401 1.99354C20.7293 1.93334 20.7186 1.87315 20.7074 1.81113C20.6925 1.72862 20.6925 1.72862 20.6772 1.64444C20.6686 1.59665 20.6599 1.54886 20.6511 1.49962C20.625 1.36289 20.625 1.36289 20.5625 1.18751C20.1087 1.18751 19.655 1.18751 19.1875 1.18751ZM9.8125 9.6875C9.27479 10.7955 8.74589 11.906 8.22961 13.0241C8.1201 13.2606 8.0099 13.4967 7.89941 13.7327C7.88055 13.773 7.86169 13.8133 7.84225 13.8548C7.82342 13.895 7.80459 13.9352 7.78519 13.9767C7.49149 14.604 7.19895 15.2319 6.91406 15.8633C6.8906 15.9152 6.86713 15.9671 6.84296 16.0205C6.73557 16.2218 6.73557 16.2218 6.6875 16.4375C7.24055 16.4389 7.7936 16.4401 8.34665 16.4407C8.60343 16.4411 8.86021 16.4415 9.11699 16.4422C9.36459 16.4429 9.61219 16.4433 9.8598 16.4434C9.95447 16.4436 10.0491 16.4438 10.1438 16.4441C10.276 16.4446 10.4081 16.4446 10.5403 16.4446C10.6533 16.4448 10.6533 16.4448 10.7686 16.445C10.9323 16.4568 10.9323 16.4568 11 16.375C11.0187 16.2903 11.034 16.2048 11.0479 16.1192C11.0569 16.0641 11.0659 16.0089 11.0752 15.9522C11.0849 15.8912 11.0946 15.8303 11.1046 15.7675C11.115 15.7037 11.1254 15.6398 11.1361 15.5741C11.1705 15.362 11.2045 15.1499 11.2385 14.9377C11.2622 14.791 11.286 14.6443 11.3097 14.4975C11.3595 14.1895 11.4092 13.8814 11.4587 13.5734C11.5222 13.1777 11.5861 12.7821 11.6501 12.3865C11.6992 12.0833 11.7481 11.7801 11.797 11.4769C11.8205 11.331 11.8441 11.1851 11.8676 11.0392C11.9005 10.8355 11.9333 10.6318 11.966 10.4281C11.9758 10.3673 11.9856 10.3065 11.9958 10.2438C12.0046 10.1885 12.0135 10.1332 12.0226 10.0763C12.0303 10.0281 12.0381 9.97986 12.0461 9.9302C12.0654 9.81168 12.0654 9.81168 12.0625 9.6875C11.32 9.6875 10.5775 9.6875 9.8125 9.6875ZM13.0625 9.6875C12.8248 11.0557 12.5943 12.425 12.3678 13.7951C12.3362 13.9864 12.3044 14.1777 12.2725 14.3689C12.2343 14.5982 12.1963 14.8276 12.1586 15.0569C12.1445 15.1426 12.1302 15.2283 12.1159 15.314C12.096 15.4327 12.0766 15.5515 12.0572 15.6702C12.0461 15.7372 12.035 15.8042 12.0236 15.8732C11.9923 16.0927 11.9923 16.0927 12 16.4375C13.155 16.4375 14.31 16.4375 15.5 16.4375C15.5 14.21 15.5 11.9825 15.5 9.6875C14.6956 9.6875 13.8912 9.6875 13.0625 9.6875ZM16.5 9.6875C16.5 11.915 16.5 14.1425 16.5 16.4375C17.655 16.4375 18.81 16.4375 20 16.4375C19.9616 15.9766 19.9209 15.5321 19.8453 15.0785C19.8363 15.0227 19.8272 14.9669 19.8179 14.9094C19.7884 14.728 19.7585 14.5466 19.7285 14.3652C19.7077 14.238 19.6869 14.1108 19.6662 13.9835C19.6229 13.7183 19.5793 13.4531 19.5357 13.188C19.4797 12.8481 19.4241 12.5082 19.3686 12.1683C19.3258 11.9062 19.2829 11.6441 19.2399 11.3821C19.2194 11.2567 19.1988 11.1313 19.1783 11.0059C19.1497 10.8312 19.121 10.6565 19.0922 10.4818C19.0837 10.4301 19.0753 10.3784 19.0666 10.3252C19.0309 10.1096 18.9905 9.89966 18.9375 9.6875C18.1331 9.6875 17.3288 9.6875 16.5 9.6875ZM19.9375 9.6875C20.1659 11.1998 20.4053 12.71 20.6523 14.2194C20.6758 14.3636 20.6993 14.5079 20.7228 14.6521C20.7601 14.8816 20.7977 15.1111 20.8354 15.3405C20.8495 15.4263 20.8635 15.5122 20.8775 15.598C20.8967 15.7162 20.9162 15.8344 20.9357 15.9526C20.9467 16.0194 20.9576 16.0861 20.9689 16.1549C20.9925 16.3114 20.9925 16.3114 21.0625 16.4375C22.465 16.4375 23.8675 16.4375 25.3125 16.4375C25.2145 16.1434 25.1047 15.8731 24.9714 15.5952C24.9502 15.5506 24.929 15.5059 24.9072 15.4599C24.8617 15.3642 24.8162 15.2685 24.7705 15.1728C24.6491 14.9185 24.5285 14.6638 24.4077 14.4092C24.3835 14.3581 24.3592 14.307 24.3342 14.2544C24.1228 13.8087 23.9142 13.3617 23.707 12.9141C23.6751 12.8452 23.6432 12.7762 23.6103 12.7052C23.5453 12.565 23.4804 12.4248 23.4155 12.2846C23.2433 11.9133 23.0707 11.5423 22.8978 11.1713C22.8598 11.0897 22.8217 11.0079 22.7837 10.9262C22.7308 10.8124 22.6778 10.6987 22.6248 10.585C22.5946 10.5202 22.5644 10.4554 22.5333 10.3886C22.4212 10.1534 22.304 9.92058 22.1875 9.6875C21.445 9.6875 20.7025 9.6875 19.9375 9.6875ZM7.625 11.8125C7.15973 12.2763 6.69463 12.7403 6.22974 13.2045C6.01384 13.4201 5.79787 13.6356 5.58177 13.851C5.37293 14.0592 5.16425 14.2675 4.95567 14.4759C4.87637 14.5551 4.79701 14.6342 4.71759 14.7133C4.16385 15.2634 4.16385 15.2634 3.64234 15.8438C3.54004 15.9639 3.42992 16.0742 3.31641 16.1836C3.25147 16.2462 3.18727 16.3097 3.125 16.375C3.125 16.3956 3.125 16.4163 3.125 16.4375C3.92937 16.4375 4.73375 16.4375 5.5625 16.4375C5.87767 15.8072 6.18835 15.1781 6.48438 14.5391C6.52161 14.4588 6.55884 14.3785 6.59608 14.2983C6.65312 14.1754 6.71013 14.0524 6.76708 13.9294C6.87968 13.6864 6.99319 13.4438 7.10757 13.2016C7.16162 13.0871 7.21546 12.9724 7.26923 12.8578C7.33604 12.7154 7.4032 12.5731 7.47076 12.4311C7.50031 12.3678 7.52986 12.3045 7.5603 12.2393C7.58648 12.1838 7.61266 12.1283 7.63963 12.0711C7.65543 12.027 7.67123 11.9829 7.6875 11.9375C7.65656 11.8756 7.65656 11.8756 7.625 11.8125ZM24.3125 11.8125C24.4032 12.1054 24.5212 12.3789 24.6536 12.6548C24.6748 12.6995 24.696 12.7442 24.7179 12.7903C24.7634 12.8861 24.809 12.9819 24.8547 13.0777C24.975 13.3297 25.0946 13.5821 25.2144 13.8345C25.2385 13.8852 25.2626 13.936 25.2874 13.9883C25.5506 14.543 25.8088 15.1 26.0665 15.6574C26.0973 15.724 26.1281 15.7907 26.1599 15.8594C26.1865 15.9171 26.2132 15.9748 26.2406 16.0342C26.3041 16.1696 26.3706 16.3037 26.4375 16.4375C27.2419 16.4375 28.0462 16.4375 28.875 16.4375C28.5886 16.0991 28.5886 16.0991 28.2852 15.7852C28.1413 15.6442 28.0068 15.4999 27.8768 15.3461C27.5597 14.9816 27.2153 14.6438 26.8735 14.3027C26.8014 14.2306 26.7293 14.1584 26.6573 14.0863C26.5072 13.9362 26.3571 13.7862 26.2069 13.6362C26.0139 13.4437 25.8213 13.2508 25.6287 13.0578C25.4804 12.9093 25.332 12.761 25.1835 12.6126C25.1123 12.5415 25.0412 12.4703 24.9701 12.3991C24.8714 12.3002 24.7725 12.2015 24.6735 12.1029C24.6172 12.0467 24.5609 11.9905 24.503 11.9325C24.3966 11.8054 24.3966 11.8054 24.3125 11.8125ZM6.375 17.4375C6.375 20.4488 6.375 23.46 6.375 26.5625C8.355 26.5625 10.335 26.5625 12.375 26.5625C12.375 23.5513 12.375 20.54 12.375 17.4375C10.395 17.4375 8.415 17.4375 6.375 17.4375ZM13.375 17.4375C13.375 18.0769 13.375 18.7163 13.375 19.375C15.1075 19.375 16.84 19.375 18.625 19.375C18.625 18.7356 18.625 18.0963 18.625 17.4375C16.8925 17.4375 15.16 17.4375 13.375 17.4375ZM19.625 17.4375C19.625 20.4488 19.625 23.46 19.625 26.5625C21.605 26.5625 23.585 26.5625 25.625 26.5625C25.625 23.5513 25.625 20.54 25.625 17.4375C23.645 17.4375 21.665 17.4375 19.625 17.4375ZM26.625 17.4375C26.625 20.4488 26.625 23.46 26.625 26.5625C27.2231 26.5625 27.8213 26.5625 28.4375 26.5625C28.4375 23.5513 28.4375 20.54 28.4375 17.4375C27.8394 17.4375 27.2412 17.4375 26.625 17.4375ZM13.375 20.375C13.375 22.4169 13.375 24.4588 13.375 26.5625C14.0763 26.5625 14.7775 26.5625 15.5 26.5625C15.5 24.5206 15.5 22.4788 15.5 20.375C14.7987 20.375 14.0975 20.375 13.375 20.375ZM16.5 20.375C16.5 21.2206 16.5 22.0663 16.5 22.9375C16.7062 22.9581 16.9125 22.9788 17.125 23C17.2075 23.0206 17.29 23.0413 17.375 23.0625C17.472 23.556 17.472 23.556 17.3594 23.7813C17.1875 23.875 17.1875 23.875 16.5 23.9375C16.5 24.8038 16.5 25.67 16.5 26.5625C17.2013 26.5625 17.9025 26.5625 18.625 26.5625C18.625 24.5206 18.625 22.4788 18.625 20.375C17.9237 20.375 17.2225 20.375 16.5 20.375ZM3.5625 27.5625C3.5625 27.9338 3.5625 28.305 3.5625 28.6875C3.67372 28.6877 3.78494 28.6878 3.89953 28.688C6.53783 28.6915 9.17613 28.6961 11.8144 28.7018C12.1389 28.7025 12.4635 28.7032 12.788 28.7039C12.8849 28.7041 12.8849 28.7041 12.9837 28.7043C14.0307 28.7065 15.0777 28.7081 16.1248 28.7094C17.1986 28.7108 18.2723 28.7128 19.3461 28.7155C20.0091 28.7172 20.672 28.7183 21.335 28.7187C21.7892 28.719 22.2434 28.7201 22.6975 28.7216C22.9599 28.7225 23.2221 28.7231 23.4845 28.7228C23.7244 28.7226 23.9644 28.7232 24.2043 28.7246C24.2913 28.7249 24.3783 28.7249 24.4653 28.7246C24.5832 28.7242 24.7011 28.725 24.819 28.726C24.8846 28.7261 24.9502 28.7262 25.0178 28.7263C25.2132 28.7536 25.2997 28.7974 25.4375 28.9375C25.4688 29.1523 25.4688 29.1523 25.4375 29.375C25.3045 29.5523 25.2305 29.6174 25.0102 29.6565C24.9064 29.6566 24.9064 29.6566 24.8005 29.6567C24.7205 29.6575 24.6405 29.6582 24.5582 29.6589C24.4692 29.6584 24.3803 29.658 24.2914 29.6574C24.1971 29.6578 24.1028 29.6583 24.0084 29.6589C23.7489 29.6601 23.4894 29.6598 23.2298 29.6593C22.9501 29.659 22.6704 29.6601 22.3906 29.6611C21.9059 29.6625 21.4211 29.6631 20.9363 29.663C20.2354 29.6629 19.5344 29.6642 18.8335 29.6658C17.6964 29.6684 16.5592 29.6698 15.4221 29.6706C14.3173 29.6713 13.2126 29.6726 12.1078 29.6745C12.0397 29.6747 11.9717 29.6748 11.9015 29.6749C11.56 29.6755 11.2185 29.6761 10.877 29.6768C8.04301 29.6819 5.20901 29.6853 2.375 29.6875C2.375 30.0588 2.375 30.43 2.375 30.8125C11.3675 30.8125 20.36 30.8125 29.625 30.8125C29.625 30.4413 29.625 30.07 29.625 29.6875C29.4429 29.6837 29.2608 29.6799 29.0732 29.676C28.8968 29.6722 28.7204 29.6682 28.5439 29.6642C28.4213 29.6615 28.2988 29.6589 28.1762 29.6564C27.9999 29.6528 27.8237 29.6488 27.6475 29.6448C27.5927 29.6437 27.5379 29.6427 27.4815 29.6416C27.4302 29.6404 27.379 29.6391 27.3261 29.6378C27.2587 29.6364 27.2587 29.6364 27.1898 29.6349C27.0582 29.6247 26.9395 29.5981 26.8125 29.5625C26.7361 29.1042 26.7361 29.1042 26.8008 28.9102C26.875 28.8125 26.875 28.8125 27 28.75C27.1087 28.7405 27.2177 28.7344 27.3267 28.7302C27.4233 28.7263 27.4233 28.7263 27.522 28.7223C27.5895 28.7198 27.657 28.7174 27.7266 28.7148C27.8286 28.7108 27.8286 28.7108 27.9326 28.7067C28.1009 28.7 28.2692 28.6937 28.4375 28.6875C28.4375 28.3163 28.4375 27.945 28.4375 27.5625C20.2288 27.5625 12.02 27.5625 3.5625 27.5625Z" fill="white"/>
<path d="M21.9759 19.5476C22.0288 19.5471 22.0818 19.5466 22.1363 19.5461C22.2484 19.5452 22.3604 19.5446 22.4725 19.5441C22.6433 19.543 22.814 19.5403 22.9848 19.5375C23.0938 19.5369 23.2028 19.5363 23.3118 19.5359C23.3626 19.5348 23.4134 19.5337 23.4657 19.5326C23.7968 19.5338 23.994 19.5834 24.25 19.8125C24.4519 20.1097 24.466 20.3698 24.4646 20.7168C24.465 20.7667 24.4653 20.8166 24.4656 20.8681C24.466 20.9731 24.4659 21.0782 24.4654 21.1832C24.4649 21.3433 24.4667 21.5033 24.4687 21.6634C24.4688 21.7658 24.4687 21.8683 24.4685 21.9707C24.4696 22.0419 24.4696 22.0419 24.4707 22.1146C24.4657 22.4919 24.337 22.7016 24.0899 22.9883C23.8616 23.1768 23.5674 23.1373 23.2879 23.1399C23.2363 23.1404 23.1847 23.1409 23.1316 23.1414C23.0225 23.1423 22.9134 23.143 22.8043 23.1435C22.638 23.1445 22.4718 23.1473 22.3056 23.15C22.1994 23.1507 22.0932 23.1512 21.9871 23.1516C21.9377 23.1527 21.8882 23.1538 21.8373 23.1549C21.5079 23.1537 21.3255 23.0903 21.0625 22.875C20.7152 22.4917 20.7988 21.9853 20.7975 21.499C20.7969 21.3566 20.795 21.2143 20.793 21.0719C20.7926 20.9805 20.7923 20.8891 20.792 20.7976C20.7912 20.7556 20.7905 20.7135 20.7897 20.6701C20.7914 20.2976 20.8834 20.0135 21.125 19.7266C21.3798 19.5196 21.6636 19.5504 21.9759 19.5476ZM21.8125 20.5625C21.8125 21.0781 21.8125 21.5938 21.8125 22.125C22.3488 22.125 22.885 22.125 23.4375 22.125C23.4375 21.6094 23.4375 21.0938 23.4375 20.5625C22.9013 20.5625 22.365 20.5625 21.8125 20.5625Z" fill="white"/>
<path d="M8.67775 19.5376C8.73067 19.5375 8.78359 19.5373 8.83812 19.5371C8.94969 19.537 9.06127 19.5373 9.17284 19.5381C9.34321 19.5391 9.51349 19.5381 9.68386 19.5369C9.7925 19.537 9.90114 19.5373 10.0098 19.5376C10.0605 19.5373 10.1112 19.5369 10.1635 19.5365C10.4528 19.5401 10.6388 19.5655 10.875 19.7501C11.1592 20.0658 11.1977 20.3052 11.2002 20.7178C11.2006 20.7637 11.2009 20.8096 11.2013 20.8568C11.2019 20.9539 11.2023 21.051 11.2025 21.1481C11.2031 21.2955 11.2051 21.4429 11.2071 21.5904C11.2075 21.6849 11.2078 21.7795 11.208 21.8741C11.2088 21.9177 11.2096 21.9613 11.2104 22.0063C11.2089 22.3248 11.1447 22.5348 11 22.8126C10.6808 23.1084 10.4646 23.1355 10.0418 23.1377C9.96407 23.1383 9.96407 23.1383 9.88481 23.1388C9.77505 23.1394 9.6653 23.1398 9.55555 23.1401C9.38805 23.1407 9.2206 23.1426 9.05312 23.1446C8.94647 23.145 8.83982 23.1453 8.73317 23.1456C8.68323 23.1463 8.63328 23.1471 8.58183 23.1479C8.29335 23.1467 8.1107 23.1216 7.87502 22.9376C7.58392 22.6141 7.55179 22.3647 7.54763 21.9424C7.54712 21.8938 7.54662 21.8452 7.5461 21.795C7.54523 21.6921 7.54456 21.5891 7.54407 21.4861C7.54335 21.3813 7.54208 21.2764 7.54023 21.1716C7.53755 21.0196 7.53655 20.8678 7.53591 20.7159C7.53481 20.6695 7.53372 20.6231 7.53259 20.5754C7.53401 20.2315 7.60981 20.0302 7.81252 19.7501C8.07628 19.5205 8.34466 19.5352 8.67775 19.5376ZM8.56252 20.5626C8.56252 21.0782 8.56252 21.5938 8.56252 22.1251C9.09877 22.1251 9.63502 22.1251 10.1875 22.1251C10.1875 21.6094 10.1875 21.0938 10.1875 20.5626C9.65127 20.5626 9.11502 20.5626 8.56252 20.5626Z" fill="white"/>
</g>
<defs>
<clipPath id="clip0_18_395">
<rect width="32" height="32" fill="white"/>
</clipPath>
</defs>
</svg>
