<svg width="22" height="22" viewBox="0 0 22 22" fill="none" xmlns="http://www.w3.org/2000/svg">
<g opacity="0.5" clip-path="url(#clip0_50_621)">
<path d="M10.6667 21.3333C16.5577 21.3333 21.3333 16.5577 21.3333 10.6667C21.3333 4.77563 16.5577 0 10.6667 0C4.77563 0 0 4.77563 0 10.6667C0 16.5577 4.77563 21.3333 10.6667 21.3333Z" fill="#F0F0F0"/>
<path d="M2.20497 4.17289C1.3671 5.26302 0.735307 6.51948 0.367432 7.88444H5.91651L2.20497 4.17289Z" fill="#0052B4"/>
<path d="M20.9657 7.88444C20.5979 6.51952 19.966 5.26306 19.1282 4.17294L15.4167 7.88444H20.9657Z" fill="#0052B4"/>
<path d="M0.367432 13.4496C0.735348 14.8145 1.36714 16.071 2.20497 17.1611L5.91639 13.4496H0.367432Z" fill="#0052B4"/>
<path d="M17.1607 2.20534C16.0706 1.36747 14.8142 0.735676 13.4492 0.36776V5.9168L17.1607 2.20534Z" fill="#0052B4"/>
<path d="M4.17249 19.1286C5.26261 19.9664 6.51907 20.5982 7.88399 20.9662V15.4172L4.17249 19.1286Z" fill="#0052B4"/>
<path d="M7.88394 0.36776C6.51903 0.735676 5.26257 1.36747 4.17249 2.2053L7.88394 5.91676V0.36776Z" fill="#0052B4"/>
<path d="M13.4492 20.9662C14.8141 20.5982 16.0706 19.9664 17.1607 19.1286L13.4492 15.4172V20.9662Z" fill="#0052B4"/>
<path d="M15.4167 13.4496L19.1282 17.1611C19.966 16.071 20.5979 14.8145 20.9657 13.4496H15.4167Z" fill="#0052B4"/>
<path d="M21.243 9.27538H12.058H12.058V0.0902917C11.6025 0.031 11.1382 0 10.6667 0C10.195 0 9.73079 0.031 9.27538 0.0902917V9.27529V9.27533H0.0902917C0.031 9.73079 0 10.1951 0 10.6667C0 11.1383 0.031 11.6025 0.0902917 12.058H9.27529H9.27533V21.243C9.73079 21.3023 10.195 21.3333 10.6667 21.3333C11.1382 21.3333 11.6025 21.3024 12.058 21.243V12.058V12.058H21.243C21.3023 11.6025 21.3333 11.1383 21.3333 10.6667C21.3333 10.1951 21.3023 9.73079 21.243 9.27538Z" fill="#D80027"/>
<path d="M13.4493 13.4493L18.2092 18.2092C18.4281 17.9903 18.6369 17.7615 18.8362 17.5244L14.7611 13.4493H13.4493V13.4493Z" fill="#D80027"/>
<path d="M7.88402 13.4493H7.88394L3.12415 18.2091C3.34298 18.4281 3.57177 18.6369 3.80894 18.8361L7.88402 14.761V13.4493Z" fill="#D80027"/>
<path d="M7.88403 7.88415V7.88406L3.12419 3.12419C2.90528 3.34302 2.69644 3.57181 2.49719 3.80898L6.57232 7.8841H7.88403V7.88415Z" fill="#D80027"/>
<path d="M13.4493 7.88411L18.2092 3.12419C17.9904 2.90528 17.7616 2.69644 17.5244 2.49723L13.4493 6.57236V7.88411Z" fill="#D80027"/>
</g>
<defs>
<clipPath id="clip0_50_621">
<rect width="21.3333" height="21.3333" fill="white"/>
</clipPath>
</defs>
</svg>
